<svg xmlns="http://www.w3.org/2000/svg" xmlns:xlink="http://www.w3.org/1999/xlink" width="255.549" height="232.51" viewBox="0 0 255.549 232.51">
  <defs>
    <clipPath id="clip-path">
      <path id="Path_461" data-name="Path 461" d="M255.07,316.585V478.823l58.3,4.035V312.667Z" transform="translate(-255.07 -312.667)" fill="none"/>
    </clipPath>
    <clipPath id="clip-path-3">
      <path id="Path_462" data-name="Path 462" d="M1252.222,123.357s-6.108,28.024,0,35.452,10.762,28.688,12.461,34.45,14.927,18.372,21.829,6.89,17.254-19.856,22.43-23.721,37.959-7.833,39.684-10.737,2.876-35.86,2.876-35.86Z" transform="translate(-1249.508 -123.357)" fill="none"/>
    </clipPath>
    <linearGradient id="linear-gradient" x1="-0.692" y1="1.824" x2="-0.692" y2="1.824" gradientUnits="objectBoundingBox">
      <stop offset="0" stop-color="#fcb148"/>
      <stop offset="0.052" stop-color="#fdb946"/>
      <stop offset="0.143" stop-color="#fec144"/>
      <stop offset="0.318" stop-color="#ffc444"/>
      <stop offset="0.484" stop-color="#fdb946"/>
      <stop offset="0.773" stop-color="#f99c4c"/>
      <stop offset="0.866" stop-color="#f8924f"/>
      <stop offset="1" stop-color="#f8924f"/>
    </linearGradient>
    <clipPath id="clip-path-4">
      <path id="Path_470" data-name="Path 470" d="M927.492,482.858l43.093-9.273v-151.5l-43.093-9.416Z" transform="translate(-927.492 -312.667)" fill="none"/>
    </clipPath>
    <clipPath id="clip-path-5">
      <rect id="Rectangle_46" data-name="Rectangle 46" width="175.486" height="97.116" fill="none"/>
    </clipPath>
    <clipPath id="clip-path-7">
      <rect id="Rectangle_28" data-name="Rectangle 28" width="22.715" height="15.812" fill="none"/>
    </clipPath>
    <clipPath id="clip-path-11">
      <rect id="Rectangle_32" data-name="Rectangle 32" width="15.036" height="15.812" fill="none"/>
    </clipPath>
  </defs>
  <g id="Group_271" data-name="Group 271" transform="translate(-82.339 -114.99)">
    <g id="Group_270" data-name="Group 270">
      <path id="Path_457" data-name="Path 457" d="M261.924,401.418l-63.18-4.806V218.823l63.18-4.679Z" transform="translate(-99.175 -80.589)" fill="#ec1c24"/>
      <path id="Path_458" data-name="Path 458" d="M256.308,1015.906v75.556h-1.237V1110.8h58.3v-94.894Z" transform="translate(-150.618 -812.84)" fill="#fff"/>
      <g id="Group_263" data-name="Group 263" transform="translate(104.452 142.097)">
        <g id="Group_262" data-name="Group 262" clip-path="url(#clip-path)">
          <path id="Path_459" data-name="Path 459" d="M156.354,64.683s.061,40.9,9.233,59.675,12.622,37.054,5.721,47.757-33.864-5.628-33.864-5.628-12.722,8.976-18.473,28.182-43.135,35.211-51.187,29.8S63.182,74.1,63.182,74.1Z" transform="translate(-79.147 -86.182)" fill="#fff"/>
          <path id="Path_460" data-name="Path 460" d="M104.1,900.589s22.653,10.563,39.8.8,31.59-27.3,31.59-27.3,17.434,10.683,26.8,10.086,16.293-30.645,16.293-30.645,15.5-7.7,22.4-23.336,28.086-32.655,39.684-36.221,18.4,3.091,18.4,3.091l-2.876,136.251-179.006,9.374Z" transform="translate(-117.185 -751.286)" fill="#fff"/>
        </g>
      </g>
      <g id="Group_267" data-name="Group 267" transform="translate(104.452 142.097)">
        <g id="Group_266" data-name="Group 266" clip-path="url(#clip-path)">
          <g id="Group_265" data-name="Group 265" transform="translate(86.214 -16.413)">
            <g id="Group_264" data-name="Group 264" clip-path="url(#clip-path-3)">
              <rect id="Rectangle_142" data-name="Rectangle 142" width="132.221" height="123.572" transform="translate(-36.257 14.675) rotate(-24.062)" fill="url(#linear-gradient)"/>
            </g>
          </g>
        </g>
      </g>
      <rect id="Rectangle_143" data-name="Rectangle 143" width="73.686" height="166.596" transform="translate(205.842 144.018)" fill="#ec1c24"/>
      <path id="Path_464" data-name="Path 464" d="M1278.206,572.765V421.275h-67.711l-20.319,57.2,20.319,94.285Z" transform="translate(-1004.652 -269.762)" fill="#fff"/>
      <path id="Path_465" data-name="Path 465" d="M970.585,391.2l-43.093,10.216V214.145l43.093,10.463V232.1l-8.067,16.011-2.465,132.312,10.531,3.167Z" transform="translate(-764.742 -80.589)" fill="#ec1c24"/>
      <path id="Path_466" data-name="Path 466" d="M970.584,494.044V369.878l-15.174-5.194-7.526-1.663-1.3-.153v75.754H927.492v55.421Z" transform="translate(-764.742 -216.419)" fill="#fff"/>
      <g id="Group_269" data-name="Group 269" transform="translate(162.749 142.097)">
        <g id="Group_268" data-name="Group 268" clip-path="url(#clip-path-4)">
          <path id="Path_467" data-name="Path 467" d="M156.354,64.683s.061,40.9,9.233,59.675,12.622,37.054,5.721,47.757-33.864-5.628-33.864-5.628-12.722,8.976-18.473,28.182-43.135,35.211-51.187,29.8S63.182,74.1,63.182,74.1Z" transform="translate(-137.444 -86.182)" fill="#fff"/>
          <path id="Path_468" data-name="Path 468" d="M104.1,900.589s22.653,10.563,39.8.8,31.59-27.3,31.59-27.3,17.434,10.683,26.8,10.086,16.293-30.645,16.293-30.645,15.5-7.7,22.4-23.336,28.086-32.655,39.684-36.221,18.4,3.091,18.4,3.091l-2.876,136.251-179.006,9.374Z" transform="translate(-175.482 -751.286)" fill="#fff"/>
          <path id="Path_469" data-name="Path 469" d="M1252.222,123.356s-6.108,28.024,0,35.452,10.762,28.688,12.461,34.449,14.927,18.372,21.829,6.89,17.254-19.856,22.43-23.721,37.959-7.833,39.684-10.737,2.876-35.859,2.876-35.859Z" transform="translate(-1221.59 -139.769)" fill="#fff"/>
        </g>
      </g>
      <rect id="Rectangle_144" data-name="Rectangle 144" width="1.15" height="159.101" transform="translate(239.123 151.513)" fill="#ec1c24"/>
      <rect id="Rectangle_145" data-name="Rectangle 145" width="1.15" height="166.557" transform="translate(133.025 144.056)" fill="#ec1c24"/>
      <path id="Path_471" data-name="Path 471" d="M423.661,915.351H355.882l-.066-.016-43-10.221-58.2,4.916-.1-1.146,58.388-4.931.09.021L356.017,914.2h67.644Z" transform="translate(-150.107 -710.593)" fill="#ec1c24"/>
      <path id="Path_472" data-name="Path 472" d="M388.358,1332.635a1.337,1.337,0,0,1-.8-2.411s.516-.383,1.416-1.062a1.337,1.337,0,1,1,1.611,2.134c-.914.69-1.434,1.076-1.434,1.076a1.332,1.332,0,0,1-.795.263" transform="translate(-271.128 -1098.692)" fill="#fff100"/>
      <path id="Path_473" data-name="Path 473" d="M547.554,1012.747a13.254,13.254,0,0,1-2.779-.347,1.337,1.337,0,1,1,.566-2.613,7.829,7.829,0,0,0,2.933.222,1.337,1.337,0,0,1,.625,2.6l-.042.01a6.13,6.13,0,0,1-1.3.128m4.369-1.243a1.337,1.337,0,0,1-.575-2.545,14.953,14.953,0,0,0,2.76-1.711,1.337,1.337,0,0,1,1.643,2.109,17.639,17.639,0,0,1-3.255,2.017,1.334,1.334,0,0,1-.573.13m-10.278-.046a1.337,1.337,0,0,1-.428-.07c-1.038-.351-2.182-.776-3.4-1.264a1.337,1.337,0,1,1,1-2.482c1.172.47,2.268.878,3.26,1.212a1.337,1.337,0,0,1-.427,2.6m-6.6-2.621a1.333,1.333,0,0,1-.539-.114c-1.035-.457-2.132-.959-3.261-1.49a1.337,1.337,0,1,1,1.14-2.419c1.109.523,2.187,1.015,3.2,1.463a1.337,1.337,0,0,1-.541,2.56M557.5,1007.2a1.337,1.337,0,0,1-1.005-2.218,20.818,20.818,0,0,0,1.98-2.677,1.337,1.337,0,1,1,2.267,1.418,23.53,23.53,0,0,1-2.235,3.021,1.334,1.334,0,0,1-1.006.456m-28.888-1.387a1.333,1.333,0,0,1-.591-.138c-1.029-.508-2.1-1.048-3.191-1.605a1.337,1.337,0,1,1,1.219-2.38c1.077.551,2.139,1.086,3.156,1.588a1.337,1.337,0,0,1-.593,2.536m-91.292-1.5a1.337,1.337,0,0,1-.816-2.4c.842-.648,1.783-1.376,2.8-2.17a1.337,1.337,0,0,1,1.647,2.106c-1.021.8-1.967,1.531-2.815,2.183a1.331,1.331,0,0,1-.814.277m84.965-1.736a1.334,1.334,0,0,1-.622-.154q-1.572-.829-3.146-1.681a1.337,1.337,0,0,1,1.272-2.352q1.559.843,3.121,1.667a1.337,1.337,0,0,1-.625,2.52m-79.372-2.638a1.337,1.337,0,0,1-.833-2.383c.891-.709,1.815-1.45,2.759-2.214a1.337,1.337,0,0,1,1.683,2.077c-.95.77-1.88,1.516-2.777,2.229a1.332,1.332,0,0,1-.832.291m73.123-.739a1.332,1.332,0,0,1-.646-.167q-1.571-.868-3.112-1.736a1.337,1.337,0,0,1,1.312-2.33q1.529.861,3.093,1.726a1.337,1.337,0,0,1-.648,2.507m-6.192-3.486a1.33,1.33,0,0,1-.664-.178q-1.577-.9-3.084-1.783a1.337,1.337,0,1,1,1.346-2.31q1.5.871,3.068,1.774a1.337,1.337,0,0,1-.666,2.5m-61.417-.245a1.337,1.337,0,0,1-.853-2.367c.929-.769,1.84-1.531,2.709-2.268a1.337,1.337,0,1,1,1.729,2.039c-.876.743-1.8,1.513-2.734,2.289a1.331,1.331,0,0,1-.851.307m55.277-3.334a1.332,1.332,0,0,1-.681-.187c-1.069-.634-2.092-1.246-3.059-1.829a1.337,1.337,0,1,1,1.381-2.29c.962.58,1.979,1.189,3.042,1.819a1.337,1.337,0,0,1-.683,2.487m-49.865-1.258a1.337,1.337,0,0,1-.88-2.344c.922-.805,1.808-1.593,2.634-2.341a1.337,1.337,0,1,1,1.8,1.981c-.838.759-1.737,1.558-2.671,2.374a1.333,1.333,0,0,1-.879.33m43.78-2.415a1.329,1.329,0,0,1-.7-.2c-1.11-.683-2.13-1.32-3.032-1.892a1.337,1.337,0,1,1,1.433-2.258c.892.566,1.9,1.2,3,1.873a1.337,1.337,0,0,1-.7,2.476m-38.525-2.357a1.337,1.337,0,0,1-.922-2.3c.9-.86,1.742-1.687,2.495-2.457a1.337,1.337,0,1,1,1.913,1.869c-.775.793-1.637,1.643-2.563,2.524a1.332,1.332,0,0,1-.922.369m32.536-1.473a1.332,1.332,0,0,1-.749-.23c-.569-.385-1.15-.784-1.74-1.189q-.59-.4-1.193-.817a1.337,1.337,0,0,1,1.507-2.209l1.2.821c.586.4,1.162.8,1.727,1.18a1.337,1.337,0,0,1-.751,2.444m-27.6-3.624a1.337,1.337,0,0,1-1.011-2.211c.384-.444.738-.872,1.052-1.274a14.609,14.609,0,0,1,1.344-1.5,1.337,1.337,0,0,1,1.857,1.923,11.942,11.942,0,0,0-1.1,1.224c-.341.435-.723.9-1.135,1.375a1.333,1.333,0,0,1-1.012.462m21.716-.346a1.332,1.332,0,0,1-.722-.213c-1.081-.7-2.052-1.286-2.966-1.8a1.337,1.337,0,1,1,1.316-2.328c.959.542,1.972,1.158,3.1,1.882a1.337,1.337,0,0,1-.725,2.461m-6.194-3.445a1.331,1.331,0,0,1-.539-.114A20.241,20.241,0,0,0,475.882,976a1.337,1.337,0,0,1,.66-2.591,22.9,22.9,0,0,1,3.55,1.253,1.337,1.337,0,0,1-.54,2.56m-10.291-.875a1.337,1.337,0,0,1-.532-2.564,10.532,10.532,0,0,1,3.942-.848,1.337,1.337,0,1,1,.067,2.673,7.767,7.767,0,0,0-2.947.629,1.331,1.331,0,0,1-.53.11" transform="translate(-315.843 -773.592)" fill="#cd001c"/>
      <path id="Path_474" data-name="Path 474" d="M1866.266,1255.1a1.338,1.338,0,0,1-1.221-1.879,15.977,15.977,0,0,0,.594-1.513,1.337,1.337,0,0,1,2.554.79,17.93,17.93,0,0,1-.7,1.807,1.337,1.337,0,0,1-1.223.795" transform="translate(-1620.908 -1027.345)" fill="#fff100"/>
      <path id="Path_475" data-name="Path 475" d="M76.46,38.232c0,16.336-22.886,46.146-33.244,58.8a6.445,6.445,0,0,1-9.973,0C22.886,84.378,0,54.568,0,38.232a38.23,38.23,0,1,1,76.46,0" transform="translate(82.339 114.988)" fill="#cd001c"/>
      <path id="Path_476" data-name="Path 476" d="M237.674,216.355a21.321,21.321,0,1,1-21.321-21.321,21.321,21.321,0,0,1,21.321,21.321" transform="translate(-95.783 -63.135)" fill="#fff"/>
      <path id="Path_477" data-name="Path 477" d="M366.46,1251.416a7.814,7.814,0,1,1-7.814-7.814,7.814,7.814,0,0,1,7.814,7.814" transform="translate(-238.077 -1020.796)" fill="#cd001c"/>
      <path id="Path_478" data-name="Path 478" d="M1721.959,664.637c0,7.434-10.415,21-15.128,26.758a2.933,2.933,0,0,1-4.538,0c-4.713-5.758-15.128-19.324-15.128-26.758a17.4,17.4,0,1,1,34.794,0" transform="translate(-1458.555 -476.137)" fill="#ec1c24"/>
      <path id="Path_479" data-name="Path 479" d="M1795.321,745.693a9.7,9.7,0,1,1-9.7-9.7,9.7,9.7,0,0,1,9.7,9.7" transform="translate(-1539.611 -557.192)" fill="#fff"/>
      <path id="Path_480" data-name="Path 480" d="M1853.925,1216.7a3.556,3.556,0,1,1-3.556-3.556,3.556,3.556,0,0,1,3.556,3.556" transform="translate(-1604.361 -992.982)" fill="#ec1c24"/>
      <rect id="Rectangle_146" data-name="Rectangle 146" width="210.322" height="218.51" transform="translate(82.339 114.99)" fill="none"/>
    </g>
    <g id="Group_35" data-name="Group 35" transform="translate(162.401 250.384)">
      <g id="Group_34" data-name="Group 34" clip-path="url(#clip-path-5)">
        <g id="Group_33" data-name="Group 33">
          <g id="Group_32" data-name="Group 32" clip-path="url(#clip-path-5)">
            <path id="Path_160" data-name="Path 160" d="M42.165,86.068l25.876-.148a1.748,1.748,0,0,0,1.738-1.758l-.111-19.384a1.748,1.748,0,0,0-1.758-1.738l-24.128.138a1.749,1.749,0,0,0-1.738,1.758Z" transform="translate(-8.27 -12.399)" fill="#fff"/>
            <g id="Group_19" data-name="Group 19" transform="translate(33.805 57.857)" opacity="0.61">
              <g id="Group_18" data-name="Group 18">
                <g id="Group_17" data-name="Group 17" clip-path="url(#clip-path-7)">
                  <path id="Path_161" data-name="Path 161" d="M64.8,87.705,42.082,72.023l.091,15.812Z" transform="translate(-42.082 -72.023)" fill="#fff"/>
                </g>
              </g>
            </g>
            <path id="Path_162" data-name="Path 162" d="M78.986,86.059l25.876-.148a1.748,1.748,0,0,0,1.738-1.758l-.111-19.384a1.748,1.748,0,0,0-1.758-1.738L80.6,63.168a1.747,1.747,0,0,0-1.738,1.758Z" transform="translate(-15.511 -12.397)" fill="#fff"/>
            <g id="Group_22" data-name="Group 22" transform="translate(63.383 57.85)" opacity="0.61">
              <g id="Group_21" data-name="Group 21">
                <g id="Group_20" data-name="Group 20" clip-path="url(#clip-path-7)">
                  <path id="Path_163" data-name="Path 163" d="M101.617,87.7,78.9,72.014l.091,15.812Z" transform="translate(-78.902 -72.014)" fill="#fff"/>
                </g>
              </g>
            </g>
            <path id="Path_164" data-name="Path 164" d="M116.808,86.051l25.876-.148a1.748,1.748,0,0,0,1.738-1.758l-.111-19.384a1.748,1.748,0,0,0-1.758-1.738l-24.128.138a1.748,1.748,0,0,0-1.738,1.758Z" transform="translate(-22.95 -12.395)" fill="#fff"/>
            <g id="Group_25" data-name="Group 25" transform="translate(93.768 57.843)" opacity="0.61">
              <g id="Group_24" data-name="Group 24">
                <g id="Group_23" data-name="Group 23" clip-path="url(#clip-path-7)">
                  <path id="Path_165" data-name="Path 165" d="M139.441,87.688,116.726,72.006l.091,15.812Z" transform="translate(-116.726 -72.005)" fill="#fff"/>
                </g>
              </g>
            </g>
            <path id="Path_166" data-name="Path 166" d="M153.628,86.042l25.876-.148a1.749,1.749,0,0,0,1.738-1.758l-.111-19.384a1.747,1.747,0,0,0-1.758-1.738l-24.128.138a1.749,1.749,0,0,0-1.738,1.758Z" transform="translate(-30.192 -12.394)" fill="#fff"/>
            <g id="Group_28" data-name="Group 28" transform="translate(123.346 57.837)" opacity="0.61">
              <g id="Group_27" data-name="Group 27">
                <g id="Group_26" data-name="Group 26" clip-path="url(#clip-path-7)">
                  <path id="Path_167" data-name="Path 167" d="M176.261,87.68,153.545,72l.091,15.812Z" transform="translate(-153.546 -71.997)" fill="#fff"/>
                </g>
              </g>
            </g>
            <path id="Path_168" data-name="Path 168" d="M187.728,86.033l17.773-.151c.283,0,.51-.35.509-.778l-.082-21.334c0-.427-.232-.771-.515-.769l-17.261.147c-.283,0-.51.35-.509.778Z" transform="translate(-36.906 -12.391)" fill="#fff"/>
            <g id="Group_31" data-name="Group 31" transform="translate(150.761 57.83)" opacity="0.61">
              <g id="Group_30" data-name="Group 30">
                <g id="Group_29" data-name="Group 29" clip-path="url(#clip-path-11)">
                  <path id="Path_169" data-name="Path 169" d="M202.709,87.673,187.673,71.989l.06,15.813Z" transform="translate(-187.673 -71.989)" fill="#fff"/>
                </g>
              </g>
            </g>
            <path id="Path_170" data-name="Path 170" d="M170.329,34.282c0,.4.807-.54.807-.54s-.594-3.362-.594-4.08-2.637-8.669-3.985-10.594-2.918-4.05-4.266-4.826-4.687-2.56-5.043-2.916a9.644,9.644,0,0,0-1.629-.97v.459l-134.846.031s-7.217,8.043-7.713,8.894-5.9,5.546-5.9,5.546-2.909,2.629-3.19,3.837a14.052,14.052,0,0,0-.57,2.984c.067.429,1.652,1.835,1.652,1.835s165.344.436,165.277.34" transform="translate(-0.667 -2.037)" fill="#fff" fill-rule="evenodd"/>
            <path id="Path_171" data-name="Path 171" d="M170.329,34.282c0,.4.807-.54.807-.54s-.594-3.362-.594-4.08-2.637-8.669-3.985-10.594-2.918-4.05-4.266-4.826-4.687-2.56-5.043-2.916a9.644,9.644,0,0,0-1.629-.97v.459l-134.846.031s-7.217,8.043-7.713,8.894-5.9,5.546-5.9,5.546-2.909,2.629-3.19,3.837a14.052,14.052,0,0,0-.57,2.984c.067.429,1.652,1.835,1.652,1.835S170.4,34.378,170.329,34.282Z" transform="translate(-0.667 -2.037)" fill="none" stroke="#272525" stroke-linecap="round" stroke-linejoin="round" stroke-width="1.011"/>
            <path id="Path_172" data-name="Path 172" d="M5.46,40.676,5.473,96.4l144.183-.033,22.523-1.671-.012-54.055Zm148.6,22.955,9.661,0,0,13.5-9.662,0Zm-28.431.006,23.737-.006,0,13.505-23.737.006Zm-29.785.007,25.729-.006,0,13.505-25.729.006Zm-30.852.007,25.876-.006,0,13.505L65,77.156Zm-29.571.006,26.587-.006,0,13.505-26.587.006Z" transform="translate(-1.074 -7.993)" fill="#b9252c"/>
            <path id="Path_173" data-name="Path 173" d="M5.46,40.676,5.473,96.4l144.183-.033,22.523-1.671-.012-54.055Zm148.6,22.955,9.661,0,0,13.5-9.662,0Zm-28.431.006,23.737-.006,0,13.505-23.737.006Zm-29.785.007,25.729-.006,0,13.505-25.729.006Zm-30.852.007,25.876-.006,0,13.505L65,77.156Zm-29.571.006,26.587-.006,0,13.505-26.587.006Z" transform="translate(-1.074 -7.993)" fill="none" stroke="#272525" stroke-linecap="round" stroke-linejoin="round" stroke-width="1.011"/>
            <path id="Path_174" data-name="Path 174" d="M177.917,65.919,34.678,66.07v.71l143.239-.151Z" transform="translate(-6.821 -12.965)" fill="#272525" fill-rule="evenodd"/>
            <path id="Path_175" data-name="Path 175" d="M177.917,65.919,34.678,66.07v.71l143.239-.151Z" transform="translate(-6.821 -12.965)" fill="none" stroke="#272525" stroke-linecap="round" stroke-linejoin="round" stroke-width="1.011"/>
            <rect id="Rectangle_33" data-name="Rectangle 33" width="17.836" height="35.413" transform="translate(9.963 52.989)" fill="#fff12d"/>
            <rect id="Rectangle_34" data-name="Rectangle 34" width="17.836" height="35.413" transform="translate(9.963 52.989)" fill="none" stroke="#272525" stroke-linecap="round" stroke-linejoin="round" stroke-width="1.011"/>
            <rect id="Rectangle_35" data-name="Rectangle 35" width="17.836" height="3.561" transform="translate(9.966 84.841)" fill="#fff"/>
            <rect id="Rectangle_36" data-name="Rectangle 36" width="17.836" height="3.561" transform="translate(9.966 84.841)" fill="none" stroke="#272525" stroke-linecap="round" stroke-linejoin="round" stroke-width="1.011"/>
            <rect id="Rectangle_37" data-name="Rectangle 37" width="0.703" height="31.852" transform="translate(18.528 52.989)" fill="#b9252c"/>
            <rect id="Rectangle_38" data-name="Rectangle 38" width="0.703" height="31.852" transform="translate(18.528 52.989)" fill="none" stroke="#272525" stroke-linecap="round" stroke-linejoin="round" stroke-width="1.011"/>
            <rect id="Rectangle_39" data-name="Rectangle 39" width="3.553" height="13.364" transform="translate(12.841 55.477)" fill="#272525"/>
            <rect id="Rectangle_40" data-name="Rectangle 40" width="3.553" height="13.364" transform="translate(12.841 55.477)" fill="none" stroke="#272525" stroke-linecap="round" stroke-linejoin="round" stroke-width="1.011"/>
            <rect id="Rectangle_41" data-name="Rectangle 41" width="3.555" height="13.364" transform="translate(21.518 55.475)" fill="#272525"/>
            <rect id="Rectangle_42" data-name="Rectangle 42" width="3.555" height="13.364" transform="translate(21.518 55.475)" fill="none" stroke="#272525" stroke-linecap="round" stroke-linejoin="round" stroke-width="1.011"/>
            <path id="Path_176" data-name="Path 176" d="M.506,19.414H4.481L4.5,94.9H1.056L.523,92.647Z" transform="translate(-0.099 -3.818)" fill="#b9252c" fill-rule="evenodd"/>
            <path id="Path_177" data-name="Path 177" d="M.506,19.414H4.481L4.5,94.9H1.056L.523,92.647Z" transform="translate(-0.099 -3.818)" fill="none" stroke="#272525" stroke-linecap="round" stroke-linejoin="round" stroke-width="1.011"/>
            <path id="Path_178" data-name="Path 178" d="M216.969,91.19h-3.976l-.016-68.812h3.443l.533,2.265Z" transform="translate(-41.889 -4.401)" fill="#b9252c" fill-rule="evenodd"/>
            <path id="Path_179" data-name="Path 179" d="M216.969,91.19h-3.976l-.016-68.812h3.443l.533,2.265Z" transform="translate(-41.889 -4.401)" fill="none" stroke="#272525" stroke-linecap="round" stroke-linejoin="round" stroke-width="1.011"/>
            <path id="Path_180" data-name="Path 180" d="M31.173,60.985l-18.777,0L47.516,40.673l18.295,0Z" transform="translate(-2.438 -7.999)" fill="#fff12d" fill-rule="evenodd"/>
            <path id="Path_181" data-name="Path 181" d="M88.5,37.886h1.067l0-11.358h-.926l-.141.341Z" transform="translate(-17.406 -5.217)" fill="#272525" fill-rule="evenodd"/>
            <path id="Path_182" data-name="Path 182" d="M88.5,37.886h1.067l0-11.358h-.926l-.141.341Z" transform="translate(-17.406 -5.217)" fill="none" stroke="#272525" stroke-linecap="round" stroke-linejoin="round" stroke-width="1.011"/>
            <path id="Path_183" data-name="Path 183" d="M144.418,37.873h1.067l0-11.358h-.918l-.149.341Z" transform="translate(-28.404 -5.215)" fill="#272525" fill-rule="evenodd"/>
            <path id="Path_184" data-name="Path 184" d="M144.418,37.873h1.067l0-11.358h-.918l-.149.341Z" transform="translate(-28.404 -5.215)" fill="none" stroke="#272525" stroke-linecap="round" stroke-linejoin="round" stroke-width="1.011"/>
            <path id="Path_185" data-name="Path 185" d="M209.03,32.769,192.891,8.444l0-7.811,16.137,17.528Z" transform="translate(-37.938 -0.124)" fill="#b9252c" fill-rule="evenodd"/>
            <path id="Path_186" data-name="Path 186" d="M209.03,32.769,192.891,8.444l0-7.811,16.137,17.528Z" transform="translate(-37.938 -0.124)" fill="none" stroke="#272525" stroke-linecap="round" stroke-linejoin="round" stroke-width="1.011"/>
            <path id="Path_187" data-name="Path 187" d="M209.027,18.089,192.889.62l3.436-.052L212.47,18.089Z" transform="translate(-37.938 -0.112)" fill="#b9252c" fill-rule="evenodd"/>
            <path id="Path_188" data-name="Path 188" d="M209.027,18.089,192.889.62l3.436-.052L212.47,18.089Z" transform="translate(-37.938 -0.112)" fill="none" stroke="#272525" stroke-linecap="round" stroke-linejoin="round" stroke-width="1.011"/>
            <path id="Path_189" data-name="Path 189" d="M5.459,32.815,21.586,10.044l0-9.373L5.455,15.727Z" transform="translate(-1.073 -0.132)" fill="#b9252c" fill-rule="evenodd"/>
            <path id="Path_190" data-name="Path 190" d="M5.459,32.815,21.586,10.044l0-9.373L5.455,15.727Z" transform="translate(-1.073 -0.132)" fill="none" stroke="#272525" stroke-linecap="round" stroke-linejoin="round" stroke-width="1.011"/>
            <path id="Path_191" data-name="Path 191" d="M4.481,15.695,20.611.638,17.242.506.506,15.7Z" transform="translate(-0.099 -0.099)" fill="#b9252c" fill-rule="evenodd"/>
            <path id="Path_192" data-name="Path 192" d="M4.481,15.695,20.611.638,17.242.506.506,15.7Z" transform="translate(-0.099 -0.099)" fill="none" stroke="#272525" stroke-linecap="round" stroke-linejoin="round" stroke-width="1.011"/>
            <path id="Path_193" data-name="Path 193" d="M159.975,5.359l-134.44.031V4.4l116.279-.027,18.161.025Z" transform="translate(-5.022 -0.86)" fill="#272525" fill-rule="evenodd"/>
            <path id="Path_194" data-name="Path 194" d="M159.975,5.359l-134.44.031V4.4l116.279-.027,18.161.025Z" transform="translate(-5.022 -0.86)" fill="none" stroke="#272525" stroke-linecap="round" stroke-linejoin="round" stroke-width="1.011"/>
            <path id="Path_195" data-name="Path 195" d="M159.976,8.989l-134.44.031v-1l116.278-.027,18.162.026Z" transform="translate(-5.022 -1.572)" fill="#272525" fill-rule="evenodd"/>
            <path id="Path_196" data-name="Path 196" d="M159.976,8.989l-134.44.031v-1l116.278-.027,18.162.026Z" transform="translate(-5.022 -1.572)" fill="none" stroke="#272525" stroke-linecap="round" stroke-linejoin="round" stroke-width="1.011"/>
            <path id="Path_197" data-name="Path 197" d="M159.976,11.285l-134.44.031v-.991L141.814,10.3l18.162.025Z" transform="translate(-5.022 -2.025)" fill="#272525" fill-rule="evenodd"/>
            <path id="Path_198" data-name="Path 198" d="M159.976,11.285l-134.44.031v-.991L141.814,10.3l18.162.025Z" transform="translate(-5.022 -2.025)" fill="none" stroke="#272525" stroke-linecap="round" stroke-linejoin="round" stroke-width="1.011"/>
            <path id="Path_199" data-name="Path 199" d="M138.006,10.131h1.067l0-5.753h-.925l-.141.17Z" transform="translate(-27.143 -0.861)" fill="#272525" fill-rule="evenodd"/>
            <path id="Path_200" data-name="Path 200" d="M138.006,10.131h1.067l0-5.753h-.925l-.141.17Z" transform="translate(-27.143 -0.861)" fill="none" stroke="#272525" stroke-linecap="round" stroke-linejoin="round" stroke-width="1.011"/>
            <path id="Path_201" data-name="Path 201" d="M94.735,10.14H95.8l0-5.753h-.918l-.148.17Z" transform="translate(-18.632 -0.863)" fill="#272525" fill-rule="evenodd"/>
            <path id="Path_202" data-name="Path 202" d="M94.735,10.14H95.8l0-5.753h-.918l-.148.17Z" transform="translate(-18.632 -0.863)" fill="none" stroke="#272525" stroke-linecap="round" stroke-linejoin="round" stroke-width="1.011"/>
            <rect id="Rectangle_43" data-name="Rectangle 43" width="2.022" height="11.906" transform="translate(6.154 55.412)" fill="#272525"/>
            <rect id="Rectangle_44" data-name="Rectangle 44" width="2.022" height="11.906" transform="translate(6.154 55.412)" fill="none" stroke="#272525" stroke-linecap="round" stroke-linejoin="round" stroke-width="1.011"/>
            <path id="Path_203" data-name="Path 203" d="M171.2,115.262a10.414,10.414,0,1,1,10.407-10.413A10.435,10.435,0,0,1,171.2,115.262" transform="translate(-31.624 -18.574)" fill="#272525" fill-rule="evenodd"/>
            <path id="Path_204" data-name="Path 204" d="M171.2,115.262a10.414,10.414,0,1,1,10.407-10.413A10.435,10.435,0,0,1,171.2,115.262Z" transform="translate(-31.624 -18.574)" fill="none" stroke="#272525" stroke-linecap="round" stroke-linejoin="round" stroke-width="1.011"/>
            <path id="Path_205" data-name="Path 205" d="M54.026,115.289a10.414,10.414,0,1,1,10.415-10.413,10.429,10.429,0,0,1-10.415,10.413" transform="translate(-8.578 -18.579)" fill="#272525" fill-rule="evenodd"/>
            <path id="Path_206" data-name="Path 206" d="M54.026,115.289a10.414,10.414,0,1,1,10.415-10.413A10.429,10.429,0,0,1,54.026,115.289Z" transform="translate(-8.578 -18.579)" fill="none" stroke="#272525" stroke-linecap="round" stroke-linejoin="round" stroke-width="1.011"/>
            <path id="Path_207" data-name="Path 207" d="M172.164,33.251,5.458,33.289v-1l144.183-.034,22.523.025Z" transform="translate(-1.074 -6.344)" fill="#272525" fill-rule="evenodd"/>
            <path id="Path_208" data-name="Path 208" d="M172.164,33.251,5.458,33.289v-1l144.183-.034,22.523.025Z" transform="translate(-1.074 -6.344)" fill="none" stroke="#272525" stroke-linecap="round" stroke-linejoin="round" stroke-width="1.011"/>
            <path id="Path_209" data-name="Path 209" d="M172.605,27.493,5.9,27.531v-.993l144.183-.033,22.523.024Z" transform="translate(-1.16 -5.213)" fill="#272525" fill-rule="evenodd"/>
            <path id="Path_210" data-name="Path 210" d="M172.605,27.493,5.9,27.531v-.993l144.183-.033,22.523.024Z" transform="translate(-1.16 -5.213)" fill="none" stroke="#272525" stroke-linecap="round" stroke-linejoin="round" stroke-width="1.011"/>
            <path id="Path_211" data-name="Path 211" d="M172.166,40.258,5.46,40.3V38.742l144.183-.033,22.522.039Z" transform="translate(-1.074 -7.613)" fill="#272525" fill-rule="evenodd"/>
            <path id="Path_212" data-name="Path 212" d="M172.166,40.258,5.46,40.3V38.742l144.183-.033,22.522.039Z" transform="translate(-1.074 -7.613)" fill="none" stroke="#272525" stroke-linecap="round" stroke-linejoin="round" stroke-width="1.011"/>
            <path id="Path_213" data-name="Path 213" d="M83.963,51.322a5.089,5.089,0,0,0-.6-.456l-.054-.035A3.231,3.231,0,0,0,81.6,50.3a2,2,0,0,0-1.482.736l-.035.035a3.365,3.365,0,0,0-.255.35l-.023.041a3.346,3.346,0,0,0-.462,2.046,2.627,2.627,0,0,0,.3,1.02,1.863,1.863,0,0,0,.617.682,1.922,1.922,0,0,0,1.252.255,1.537,1.537,0,0,0,1.363-.943A1.125,1.125,0,0,0,82.944,54a.615.615,0,0,0-.143-.32c-.165-.172-.516-.238-1.068-.072a.755.755,0,0,1-.433-1.447,2.423,2.423,0,0,1,2.6.474v.006a2.055,2.055,0,0,1,.545,1.151A2.644,2.644,0,0,1,84.3,55.04a3.008,3.008,0,0,1-2.638,1.929,3.4,3.4,0,0,1-2.218-.486,3.289,3.289,0,0,1-1.133-1.24,4.119,4.119,0,0,1-.476-1.589,4.85,4.85,0,0,1,.693-3.012l.03-.042a4.9,4.9,0,0,1,.379-.521l.042-.048a3.446,3.446,0,0,1,2.591-1.24,4.73,4.73,0,0,1,2.563.777l.047.03a5.925,5.925,0,0,1,.783.586.759.759,0,0,1-1,1.139m-.824-1.5,1-.255a.751.751,0,0,0-1,.255" transform="translate(-15.305 -9.596)" fill="#fff12d" fill-rule="evenodd"/>
            <path id="Path_214" data-name="Path 214" d="M83.963,51.322a5.089,5.089,0,0,0-.6-.456l-.054-.035A3.231,3.231,0,0,0,81.6,50.3a2,2,0,0,0-1.482.736l-.035.035a3.365,3.365,0,0,0-.255.35l-.023.041a3.346,3.346,0,0,0-.462,2.046,2.627,2.627,0,0,0,.3,1.02,1.863,1.863,0,0,0,.617.682,1.922,1.922,0,0,0,1.252.255,1.537,1.537,0,0,0,1.363-.943A1.125,1.125,0,0,0,82.944,54a.615.615,0,0,0-.143-.32c-.165-.172-.516-.238-1.068-.072a.755.755,0,0,1-.433-1.447,2.423,2.423,0,0,1,2.6.474v.006a2.055,2.055,0,0,1,.545,1.151A2.644,2.644,0,0,1,84.3,55.04a3.008,3.008,0,0,1-2.638,1.929,3.4,3.4,0,0,1-2.218-.486,3.289,3.289,0,0,1-1.133-1.24,4.119,4.119,0,0,1-.476-1.589,4.85,4.85,0,0,1,.693-3.012l.03-.042a4.9,4.9,0,0,1,.379-.521l.042-.048a3.446,3.446,0,0,1,2.591-1.24,4.73,4.73,0,0,1,2.563.777l.047.03a5.925,5.925,0,0,1,.783.586.759.759,0,0,1-1,1.139m-.824-1.5a.751.751,0,0,1,1-.255" transform="translate(-15.305 -9.596)" fill="#fff12d" fill-rule="evenodd"/>
            <path id="Path_215" data-name="Path 215" d="M91.677,52.957a.457.457,0,0,0,0-.913H89.2a.456.456,0,0,0,0,.913Z" transform="translate(-17.455 -10.236)" fill="#fff12d" fill-rule="evenodd"/>
            <path id="Path_216" data-name="Path 216" d="M90.752,57.852a.454.454,0,1,0,.4-.818l-2.567-1.227a.457.457,0,0,0-.606.214.463.463,0,0,0,.214.611Z" transform="translate(-17.295 -10.968)" fill="#fff12d" fill-rule="evenodd"/>
            <path id="Path_217" data-name="Path 217" d="M87.082,61.007a.457.457,0,0,0,.617.172.452.452,0,0,0,.172-.617l-.682-1.2a.457.457,0,0,0-.617-.172.452.452,0,0,0-.172.617Z" transform="translate(-16.982 -11.631)" fill="#fff12d" fill-rule="evenodd"/>
            <path id="Path_218" data-name="Path 218" d="M81.985,61.057a.453.453,0,0,0,.9.095L83,60.1a.453.453,0,1,0-.9-.1Z" transform="translate(-16.124 -11.721)" fill="#fff12d" fill-rule="evenodd"/>
            <path id="Path_219" data-name="Path 219" d="M77.192,60.538a.453.453,0,1,0,.635.647l1.34-1.305a.457.457,0,0,0,.006-.646.451.451,0,0,0-.64-.006Z" transform="translate(-15.155 -11.623)" fill="#fff12d" fill-rule="evenodd"/>
            <path id="Path_220" data-name="Path 220" d="M73.363,57.208a.464.464,0,0,0-.19.617.458.458,0,0,0,.617.184l1.595-.855a.453.453,0,0,0-.427-.8Z" transform="translate(-14.382 -11.073)" fill="#fff12d" fill-rule="evenodd"/>
            <path id="Path_221" data-name="Path 221" d="M73.264,51.009a.456.456,0,0,0-.3.86l2.42.854a.456.456,0,0,0,.3-.86Z" transform="translate(-14.29 -10.027)" fill="#fff12d" fill-rule="evenodd"/>
            <path id="Path_222" data-name="Path 222" d="M76.131,46.338a.453.453,0,0,0-.647.635L77.673,49.2a.455.455,0,1,0,.646-.64Z" transform="translate(-14.821 -9.087)" fill="#fff12d" fill-rule="evenodd"/>
            <path id="Path_223" data-name="Path 223" d="M82.105,44.633a.457.457,0,0,0-.913,0v2.105a.456.456,0,0,0,.913,0Z" transform="translate(-15.969 -8.689)" fill="#fff12d" fill-rule="evenodd"/>
            <path id="Path_224" data-name="Path 224" d="M87.854,46.677a.455.455,0,0,0-.095-.635.449.449,0,0,0-.635.089l-1.191,1.6a.459.459,0,0,0,.088.635.454.454,0,0,0,.635-.095Z" transform="translate(-16.884 -9.037)" fill="#fff12d" fill-rule="evenodd"/>
            <path id="Path_225" data-name="Path 225" d="M194.422,51.3a5.088,5.088,0,0,0-.6-.456l-.054-.035a3.232,3.232,0,0,0-1.708-.533,2,2,0,0,0-1.483.736l-.035.035a3.364,3.364,0,0,0-.255.35l-.023.041a3.352,3.352,0,0,0-.463,2.046,2.641,2.641,0,0,0,.3,1.02,1.863,1.863,0,0,0,.617.682,1.922,1.922,0,0,0,1.252.255,1.536,1.536,0,0,0,1.363-.943,1.124,1.124,0,0,0,.066-.517.621.621,0,0,0-.143-.32c-.166-.172-.516-.238-1.068-.071a.755.755,0,0,1-.433-1.448,2.425,2.425,0,0,1,2.6.474v.006a2.051,2.051,0,0,1,.545,1.15,2.648,2.648,0,0,1-.142,1.245,3.009,3.009,0,0,1-2.638,1.928,3.4,3.4,0,0,1-2.218-.486,3.283,3.283,0,0,1-1.133-1.24,4.119,4.119,0,0,1-.476-1.589,4.851,4.851,0,0,1,.693-3.012l.03-.042a4.757,4.757,0,0,1,.379-.521l.042-.048a3.446,3.446,0,0,1,2.591-1.24,4.725,4.725,0,0,1,2.562.777l.047.03a5.925,5.925,0,0,1,.783.586.759.759,0,0,1-1,1.139m-.824-1.5,1-.255a.75.75,0,0,0-1,.255" transform="translate(-37.03 -9.591)" fill="#fff12d" fill-rule="evenodd"/>
            <path id="Path_226" data-name="Path 226" d="M194.422,51.3a5.088,5.088,0,0,0-.6-.456l-.054-.035a3.232,3.232,0,0,0-1.708-.533,2,2,0,0,0-1.483.736l-.035.035a3.364,3.364,0,0,0-.255.35l-.023.041a3.352,3.352,0,0,0-.463,2.046,2.641,2.641,0,0,0,.3,1.02,1.863,1.863,0,0,0,.617.682,1.922,1.922,0,0,0,1.252.255,1.536,1.536,0,0,0,1.363-.943,1.124,1.124,0,0,0,.066-.517.621.621,0,0,0-.143-.32c-.166-.172-.516-.238-1.068-.071a.755.755,0,0,1-.433-1.448,2.425,2.425,0,0,1,2.6.474v.006a2.051,2.051,0,0,1,.545,1.15,2.648,2.648,0,0,1-.142,1.245,3.009,3.009,0,0,1-2.638,1.928,3.4,3.4,0,0,1-2.218-.486,3.283,3.283,0,0,1-1.133-1.24,4.119,4.119,0,0,1-.476-1.589,4.851,4.851,0,0,1,.693-3.012l.03-.042a4.757,4.757,0,0,1,.379-.521l.042-.048a3.446,3.446,0,0,1,2.591-1.24,4.725,4.725,0,0,1,2.562.777l.047.03a5.925,5.925,0,0,1,.783.586.759.759,0,0,1-1,1.139m-.824-1.5a.75.75,0,0,1,1-.255" transform="translate(-37.03 -9.591)" fill="#fff12d" fill-rule="evenodd"/>
            <path id="Path_227" data-name="Path 227" d="M202.136,52.932a.457.457,0,0,0,0-.913h-2.473a.453.453,0,0,0-.457.456.458.458,0,0,0,.457.457Z" transform="translate(-39.18 -10.231)" fill="#fff12d" fill-rule="evenodd"/>
            <path id="Path_228" data-name="Path 228" d="M201.212,57.827a.454.454,0,1,0,.4-.818l-2.567-1.227a.457.457,0,0,0-.606.214.463.463,0,0,0,.214.611Z" transform="translate(-39.02 -10.963)" fill="#fff12d" fill-rule="evenodd"/>
            <path id="Path_229" data-name="Path 229" d="M197.541,60.981a.455.455,0,0,0,.617.172.451.451,0,0,0,.172-.616l-.682-1.2a.457.457,0,0,0-.617-.172.452.452,0,0,0-.172.617Z" transform="translate(-38.707 -11.626)" fill="#fff12d" fill-rule="evenodd"/>
            <path id="Path_230" data-name="Path 230" d="M192.444,61.031a.453.453,0,1,0,.9.095l.112-1.056a.453.453,0,1,0-.9-.095Z" transform="translate(-37.85 -11.716)" fill="#fff12d" fill-rule="evenodd"/>
            <path id="Path_231" data-name="Path 231" d="M187.651,60.513a.453.453,0,1,0,.634.647l1.34-1.305a.458.458,0,0,0,.006-.646.451.451,0,0,0-.64-.006Z" transform="translate(-36.881 -11.618)" fill="#fff12d" fill-rule="evenodd"/>
            <path id="Path_232" data-name="Path 232" d="M183.822,57.182a.465.465,0,0,0-.19.618.459.459,0,0,0,.617.184l1.595-.855a.454.454,0,0,0-.427-.8Z" transform="translate(-36.107 -11.068)" fill="#fff12d" fill-rule="evenodd"/>
            <path id="Path_233" data-name="Path 233" d="M183.723,50.984a.456.456,0,0,0-.3.86l2.42.853a.456.456,0,0,0,.3-.86Z" transform="translate(-36.016 -10.023)" fill="#fff12d" fill-rule="evenodd"/>
            <path id="Path_234" data-name="Path 234" d="M186.59,46.312a.453.453,0,0,0-.647.635l2.189,2.224a.455.455,0,1,0,.646-.64Z" transform="translate(-36.546 -9.082)" fill="#fff12d" fill-rule="evenodd"/>
            <path id="Path_235" data-name="Path 235" d="M192.565,44.608a.457.457,0,0,0-.913,0v2.105a.457.457,0,1,0,.913,0Z" transform="translate(-37.695 -8.684)" fill="#fff12d" fill-rule="evenodd"/>
            <path id="Path_236" data-name="Path 236" d="M198.314,46.652a.454.454,0,0,0-.095-.635.449.449,0,0,0-.635.089l-1.192,1.6a.46.46,0,0,0,.089.635.454.454,0,0,0,.635-.1Z" transform="translate(-38.609 -9.032)" fill="#fff12d" fill-rule="evenodd"/>
            <path id="Path_237" data-name="Path 237" d="M163.083,52.792l0,0a3.493,3.493,0,0,0-.436-1.025,2.628,2.628,0,0,0,.211-.9A3.026,3.026,0,0,0,160.941,48a2.833,2.833,0,0,0-1.065-.191,3,3,0,0,0-1.966.766,2.939,2.939,0,0,0-1.854-.059,1.914,1.914,0,0,0-.925-.226c-.051,0-.1,0-.146.007a1.9,1.9,0,0,0-1.278.6,2.047,2.047,0,0,0-.628-.054l-.095.01a1.984,1.984,0,0,0-.916.358,1.891,1.891,0,0,0-1.219-.419l-.08,0a1.924,1.924,0,0,0-.88.251,2.839,2.839,0,0,0-1.035-.422,2.422,2.422,0,0,0-.669-.026,1.963,1.963,0,0,0-1.58-1.819l-.119-.02a3.09,3.09,0,0,0-.449-.022l-2.381.027a2.9,2.9,0,0,0-.5.042,1.911,1.911,0,0,0-1.53,2.371l-.087-.086a2.272,2.272,0,0,0-1.683-.671,3.026,3.026,0,0,0-.684.09,3.238,3.238,0,0,0-1.431.806,4.191,4.191,0,0,0-.429.451,2.529,2.529,0,0,0-2.069-1.025,2.819,2.819,0,0,0-1.34.37,1.919,1.919,0,0,0-.227-.035,1.943,1.943,0,0,0-1.933-1.544l-.111,0a1.936,1.936,0,0,0-1.746,1.489,3.109,3.109,0,0,0-.361-.111l-.045-.01a3.363,3.363,0,0,0-.72-.069,3.126,3.126,0,0,0-2.089.813,3.155,3.155,0,0,0-1.348-.685l-.045-.01a3.224,3.224,0,0,0-2.4.427,2.911,2.911,0,0,0-3.568-.825l-.081-.031a3.172,3.172,0,0,0-.017-.321l-.021-.132a1.957,1.957,0,0,0-1.937-1.575,1.911,1.911,0,0,0-1.891,1.74l0,.039c-.01.124-.014.231-.014.328a1.968,1.968,0,0,0-.774.613,2.715,2.715,0,0,0-.586-.017c-.026-.331-.045-.566-.053-.647l-.008-.051a1.934,1.934,0,0,0-3.858.143c0,.073-.006.142-.006.206a2.677,2.677,0,0,0-1.338.011,3.056,3.056,0,0,0-1.073.51,1.953,1.953,0,0,0-1.935-1.539l-.111,0a1.964,1.964,0,0,0-.413.075,2.892,2.892,0,0,0-1.1-.768,3.139,3.139,0,0,0-1.211-.221,3.67,3.67,0,0,0-2.743,1.315,3.084,3.084,0,0,0-.665,2.672l.008.035a3.254,3.254,0,0,0,.522,1.169,2.705,2.705,0,0,0-.244.59,3.466,3.466,0,0,0,.344,2.641,3.268,3.268,0,0,0,2,1.565l.035.008a3.6,3.6,0,0,0,2.512-.323,1.811,1.811,0,0,0,1.338.431,3.169,3.169,0,0,0,3.192,3.274,3.181,3.181,0,0,0,2.718-1.6l.021-.039a3.978,3.978,0,0,0,.487-1.61,2.047,2.047,0,0,0,1.573-.688,1.89,1.89,0,0,0,1.385.574,1.986,1.986,0,0,0,.28-.024,1.862,1.862,0,0,0,.911-.4,1.982,1.982,0,0,0,.631.187l.108.009a1.944,1.944,0,0,0,1.4-.492,3.062,3.062,0,0,0,2.062.765,3.347,3.347,0,0,0,1.554-.419,3.083,3.083,0,0,0,.572-.409,3.149,3.149,0,0,0,1.954.663,2.993,2.993,0,0,0,2.074-.856l.038.034a3.159,3.159,0,0,0,2.09.774,2.978,2.978,0,0,0,1.619-.5,1.9,1.9,0,0,0,1.735.383l.1-.028.13-.056c.037-.017.1-.048.178-.093a2.066,2.066,0,0,0,1.051.274l.082,0a1.948,1.948,0,0,0,1.185-.5,1.945,1.945,0,0,0,1.221.4l.091,0h0a3.169,3.169,0,0,0,3.192,3.3,3.18,3.18,0,0,0,2.717-1.6l.022-.039a4.131,4.131,0,0,0,.472-1.431,4.026,4.026,0,0,0,3.783-.846,2.894,2.894,0,0,0,1.685.535,2.605,2.605,0,0,0,.286-.019,2.989,2.989,0,0,0,1.628-.782,2.608,2.608,0,0,0,1.652.555,2.774,2.774,0,0,0,.806-.129,1.944,1.944,0,0,0,1.33.174l.035-.008c.047-.011.094-.025.141-.041a1.83,1.83,0,0,0,1.1.347,1.933,1.933,0,0,0,.488-.071l.043-.013a2.038,2.038,0,0,0,1.239-1.081,2.152,2.152,0,0,0,.186-.7,2.394,2.394,0,0,0,.132.216,3.128,3.128,0,0,0,2.7,1.517,3.346,3.346,0,0,0,1.555-.419,2.947,2.947,0,0,0,1.452-3.319" transform="translate(-19.552 -9.145)" fill="#fff12d"/>
            <path id="Path_238" data-name="Path 238" d="M160.884,105.326a10.337,10.337,0,1,0,10.332-10.1,10.216,10.216,0,0,0-10.332,10.1" transform="translate(-31.643 -18.73)" fill="#272525"/>
            <path id="Path_239" data-name="Path 239" d="M166.556,106.367a5.778,5.778,0,1,0,5.777-5.843,5.812,5.812,0,0,0-5.777,5.843" transform="translate(-32.759 -19.771)" fill="#fff"/>
            <path id="Path_240" data-name="Path 240" d="M167.552,106.571a4.978,4.978,0,1,1,4.979,5,5,5,0,0,1-4.979-5m.324,0a4.653,4.653,0,1,0,4.652-4.674,4.668,4.668,0,0,0-4.652,4.674" transform="translate(-32.955 -19.976)" fill="#272525"/>
            <path id="Path_241" data-name="Path 241" d="M171.638,107.378a1.7,1.7,0,1,0,1.7-1.705,1.7,1.7,0,0,0-1.7,1.705" transform="translate(-33.758 -20.784)" fill="#272525"/>
            <path id="Path_242" data-name="Path 242" d="M43.713,105.606a10.337,10.337,0,1,0,10.332-10.1,10.216,10.216,0,0,0-10.332,10.1" transform="translate(-8.598 -18.785)" fill="#272525"/>
            <path id="Path_243" data-name="Path 243" d="M49.385,106.647a5.778,5.778,0,1,0,5.777-5.843,5.812,5.812,0,0,0-5.777,5.843" transform="translate(-9.713 -19.826)" fill="#fff"/>
            <path id="Path_244" data-name="Path 244" d="M50.381,106.851a4.978,4.978,0,1,1,4.979,5,5,5,0,0,1-4.979-5m.325,0a4.653,4.653,0,1,0,4.652-4.674,4.668,4.668,0,0,0-4.652,4.674" transform="translate(-9.909 -20.031)" fill="#272525"/>
            <path id="Path_245" data-name="Path 245" d="M54.467,107.658a1.7,1.7,0,1,0,1.695-1.705,1.7,1.7,0,0,0-1.695,1.705" transform="translate(-10.713 -20.839)" fill="#272525"/>
          </g>
        </g>
      </g>
    </g>
  </g>
</svg>
