<?xml version="1.0" encoding="UTF-8"?>
<svg id="Group_300" data-name="Group 300" xmlns="http://www.w3.org/2000/svg" version="1.1" viewBox="0 0 29.6 29.6">
  <defs>
    <style>
      .cls-1 {
        fill: #cd001c;
        stroke-width: 0px;
      }
    </style>
  </defs>
  <path class="cls-1" d="M25.2,4C22.6,1.6,18.9.2,14.8.2S7.1,1.6,4.4,4C1.6,6.6,0,10.2,0,14.4s1.8,10.4,2.8,13.5c.1.4.4.6.7.8.6.3,1.3,0,1.7,0,.4.1,1.1.2,1.7.2s.5,0,.7,0c.3.5.9.7,1.4.6h.6c1.1-.4,1.6-1.5,1.3-2.7l-2.1-7.8c-.3-1.2-1.3-1.9-2.4-1.6h-.6c-.6.3-1,.8-1,1.4-.5.2-1.1.6-1.5.9-.4-1.8-.6-3.7-.6-5.2C2.6,7.6,7.7,2.8,14.8,2.8s4.5.5,6.4,1.5c.2.1.5,0,.6-.2.1-.2,0-.5-.2-.6-2-1-4.3-1.6-6.8-1.6-3.6,0-6.9,1.2-9.2,3.3-2.5,2.3-3.8,5.4-3.8,9.1s.8,6.5,1.6,9.2c0,.2.2.3.4.3s0,0,.1,0c.2,0,.4-.3.3-.5-.2-.8-.5-1.8-.7-2.8.2-.2.8-.6,1.5-1l2.2,8.4c-.6,0-1.4,0-1.7,0-.1-.4-.5-1.4-.9-2.8,0-.2-.3-.4-.5-.3-.2,0-.4.3-.3.5.3,1.2.7,2.1.8,2.6-.2,0-.5,0-.7,0-.1,0-.2-.1-.2-.3-1-3-2.7-8.3-2.7-13.2C.9,6.5,6.6,1.1,14.8,1.1s13.9,5.5,13.9,13.3-1.8,10.2-2.7,13.2c0,.1-.1.2-.2.3-.2,0-.5,0-.7,0,.6-1.8,2.9-8.8,2.9-13.5s-1.7-7.6-4.7-9.9c-.2-.1-.5-.1-.6,0s-.1.5,0,.6c2.8,2.1,4.4,5.3,4.4,9.2s-.3,3.4-.6,5.2c-.5-.4-1.1-.7-1.5-.9,0-.6-.4-1.1-1-1.2h-.6c-1.1-.4-2,.2-2.4,1.5l-.8,2.9c0,.2,0,.5.3.5s.5,0,.5-.3l.8-2.9c0-.3.4-1.2,1.3-1h.6c.2.2.4.4.3.7l-2.5,9.4c0,.2-.3.4-.5.3h-.6c-.9-.4-.7-1.4-.6-1.7l.8-3c0-.2,0-.5-.3-.5s-.5,0-.5.3l-.8,3c-.3,1.2.2,2.3,1.3,2.6h.6c.6.3,1.2,0,1.4-.4.2,0,.4,0,.7,0,.6,0,1.2,0,1.7-.2.2,0,.6.2,1,.2s.5,0,.7-.1c.3-.2.6-.4.7-.8,1-3,2.8-8.4,2.8-13.5s-1.5-7.8-4.3-10.4h0ZM6,18.3h.6c.9-.4,1.2.5,1.3.8l2.1,7.8c0,.3.3,1.3-.6,1.5h-.6c-.2.2-.5,0-.5-.2l-2.5-9.4c0-.2,0-.5.3-.5ZM22.4,27.9l2.2-8.4c.7.4,1.3.8,1.5,1-.8,3.4-1.8,6.5-2,7.3-.4,0-1.1.1-1.7,0Z"/>
</svg>