<svg xmlns="http://www.w3.org/2000/svg" xmlns:xlink="http://www.w3.org/1999/xlink" width="66" height="66" viewBox="0 0 66 66">
  <defs>
    <clipPath id="clip-path">
      <rect id="Rectangle_177" data-name="Rectangle 177" width="66" height="66" fill="#fff"/>
    </clipPath>
  </defs>
  <g id="Group_315" data-name="Group 315" transform="translate(-0.172 -0.172)">
    <g id="Group_307" data-name="Group 307" transform="translate(0.172 0.172)" clip-path="url(#clip-path)">
      <path id="Path_543" data-name="Path 543" d="M14.6,66.136c-.174-.073-.347-.152-.524-.218a3.491,3.491,0,0,1-2.333-3.247q-.029-1.194,0-2.389a.583.583,0,0,0-.434-.662,4.794,4.794,0,0,1-3.165-4.709q-.005-13.5,0-26.995a2.284,2.284,0,0,1,.02-.515.961.961,0,0,1,1.9.01,3.091,3.091,0,0,1,.02.644q0,8.621,0,17.243v.84h.74c1.873,0,3.746.005,5.619,0a2.023,2.023,0,0,1,2.056,1.353c.6,1.449,1.242,2.881,1.851,4.327.475,1.126-.062,1.916-1.3,1.918q-4.1.007-8.2,0h-.827a15.006,15.006,0,0,0,.232,2.271,2.8,2.8,0,0,0,2.532,1.983c.257.017.516.009.775.009,12.938,0,25.876-.038,38.813.034,2.544.014,4.082-1.4,3.628-4.3h-.678q-4.1,0-8.2,0c-1.273,0-1.8-.786-1.3-1.958.61-1.446,1.242-2.881,1.851-4.327a2,2,0,0,1,2.017-1.312c1.873.006,3.746,0,5.619,0h.761v-.754q0-17.372,0-34.744a2.946,2.946,0,0,0-3.268-3.276H13.333a2.946,2.946,0,0,0-3.257,3.286q0,5.941,0,11.883a4.259,4.259,0,0,1-.01.58.96.96,0,0,1-1.916-.033c-.031-.515-.01-1.033-.011-1.55,0-2.108,0-4.215,0-6.37H5.813v.687q0,5.36,0,10.72c0,1.535-.708,2.236-2.254,2.238-.388,0-.777-.028-1.162.006A2.158,2.158,0,0,1,0,27.384V14.6a2.223,2.223,0,0,1,2.393-1.434c1.568.054,3.139.014,4.709.014H8.138c0-.455.028-.82,0-1.181C7.726,7.36,10.15,5.023,14.679,5.419c.528.046,1.063.006,1.658.006,0-.647,0-1.224,0-1.8A3.287,3.287,0,0,1,17.518.943,10.985,10.985,0,0,1,19.247,0H46.889c2.749.808,3.136,2.928,2.871,5.425.654,0,1.212.042,1.761-.007,4.535-.4,6.87,2.068,6.481,6.448-.037.419,0,.845,0,1.309,1.969,0,3.858.038,5.745-.014A2.235,2.235,0,0,1,66.136,14.6V27.384a2.158,2.158,0,0,1-2.4,1.426c-.384-.034-.774,0-1.162-.006-1.546,0-2.254-.7-2.255-2.237q0-5.36,0-10.719v-.69H58v.814q0,19.436,0,38.873a4.8,4.8,0,0,1-3.166,4.773.585.585,0,0,0-.433.663c.018.817.035,1.637-.008,2.453a3.422,3.422,0,0,1-2.267,3.159c-.194.082-.389.161-.584.242H43.66A3.858,3.858,0,0,1,40.789,61.7c.045-.57.007-1.146.007-1.718H25.333c0,.949.02,1.851,0,2.751a3.325,3.325,0,0,1-1.587,2.8,9.576,9.576,0,0,1-1.266.6ZM18.3,5.4H47.864c0-.468,0-.915,0-1.361,0-1.561-.543-2.1-2.088-2.1H20.346c-.172,0-.345-.006-.516.006a1.552,1.552,0,0,0-1.523,1.467c-.049.638-.01,1.283-.01,1.991m5.094,54.572H13.685c0,.96-.035,1.883.011,2.8A1.5,1.5,0,0,0,15.2,64.184q3.326.04,6.652,0a1.514,1.514,0,0,0,1.526-1.46c.04-.9.009-1.8.009-2.75m19.348-.008c0,.936-.021,1.8.006,2.656a1.543,1.543,0,0,0,1.562,1.564q3.293.037,6.587,0a1.5,1.5,0,0,0,1.531-1.309c.065-.957.016-1.922.016-2.912ZM18.213,51.773c-.509-1.187-.985-2.33-1.5-3.455a.668.668,0,0,0-.516-.232c-1.913-.016-3.826-.011-5.738-.007a1.709,1.709,0,0,0-.338.065v3.629Zm29.722-.024h8.08V48.077c-2.106,0-4.165-.006-6.225.013a.578.578,0,0,0-.411.3c-.489,1.094-.95,2.2-1.444,3.358M1.983,26.837H3.841v-11.7H1.983Zm62.2-11.67H62.3V26.817h1.882Z" transform="translate(-0.333 -0.333)" fill="#fff"/>
      <path id="Path_544" data-name="Path 544" d="M90.8,102.462H72.334a2.3,2.3,0,0,1-2.585-2.582q0-10.4,0-20.8A2.3,2.3,0,0,1,72.332,76.5q18.47,0,36.94,0a2.3,2.3,0,0,1,2.585,2.584q0,10.4,0,20.8a2.3,2.3,0,0,1-2.584,2.583H90.8m.033-24.026c-6.113,0-12.227.007-18.34-.011-.6,0-.827.14-.824.787q.032,10.268,0,20.535c0,.645.22.788.821.788q18.308-.022,36.615,0c.672,0,.826-.217.824-.852-.02-6.8-.012-13.6-.013-20.406,0-.843,0-.844-.873-.844H90.837" transform="translate(-58.068 -63.656)" fill="#fff"/>
      <path id="Path_545" data-name="Path 545" d="M124.621,251.616c.39.889.741,1.691,1.094,2.493.58,1.318,1.17,2.632,1.736,3.956a.575.575,0,0,0,.622.4c4.327-.011,8.654,0,12.981-.018a.648.648,0,0,0,.5-.245c.975-2.15,1.924-4.312,2.931-6.59h-1.526c-.753,0-1.508.016-2.26-.008a.937.937,0,0,1-.96-.933.881.881,0,0,1,.848-.967c1.484-.042,2.974-.08,4.453.015a1.686,1.686,0,0,1,1.343,2.373c-.246.641-.551,1.26-.829,1.889-.745,1.691-1.505,3.377-2.228,5.077a2,2,0,0,1-2.046,1.346q-6.748-.03-13.5,0a1.97,1.97,0,0,1-2-1.316c-.974-2.248-1.978-4.483-2.961-6.727a1.767,1.767,0,0,1,1.715-2.683q5.683-.012,11.366,0c.065,0,.129,0,.194,0a.976.976,0,0,1,1.039.992.961.961,0,0,1-1.082.941c-3.014.007-6.027,0-9.041,0h-2.4" transform="translate(-101.816 -206.997)" fill="#fff"/>
      <path id="Path_546" data-name="Path 546" d="M137.829,55.916h-9.816a2.676,2.676,0,0,1-.579-.021.961.961,0,0,1,0-1.895,2.711,2.711,0,0,1,.579-.02h19.761a2.723,2.723,0,0,1,.579.02.961.961,0,0,1,0,1.895,2.687,2.687,0,0,1-.579.021h-9.945" transform="translate(-105.16 -45.011)" fill="#fff"/>
      <path id="Path_547" data-name="Path 547" d="M165.839,277.179c-1.418,0-2.836,0-4.255,0-.749,0-1.173-.374-1.16-.988.012-.587.425-.944,1.141-.945q4.287-.009,8.574,0c.747,0,1.174.378,1.161.991-.013.59-.423.939-1.142.942-1.44.007-2.879,0-4.319,0" transform="translate(-133.127 -228.169)" fill="#fff"/>
      <path id="Path_548" data-name="Path 548" d="M95.92,55.956a.964.964,0,1,1,.936-1.009.955.955,0,0,1-.936,1.009" transform="translate(-78.933 -45.057)" fill="#fff"/>
      <path id="Path_549" data-name="Path 549" d="M279.889,54.991a.954.954,0,1,1-.923-.963.966.966,0,0,1,.923.963" transform="translate(-230.438 -45.056)" fill="#fff"/>
    </g>
  </g>
</svg>
