<svg xmlns="http://www.w3.org/2000/svg" xmlns:xlink="http://www.w3.org/1999/xlink" width="34" height="34" viewBox="0 0 34 34">
  <defs>
    <clipPath id="clip-path">
      <rect id="Rectangle_177" data-name="Rectangle 177" width="34" height="34" transform="translate(0.172 0.172)" fill="#cd001c"/>
    </clipPath>
  </defs>
  <g id="Group_308" data-name="Group 308" transform="translate(-0.172 -0.172)">
    <g id="Group_307" data-name="Group 307" clip-path="url(#clip-path)">
      <path id="Path_543" data-name="Path 543" d="M7.542,34.172c-.09-.038-.179-.079-.271-.113a1.8,1.8,0,0,1-1.206-1.678q-.015-.617,0-1.235a.3.3,0,0,0-.224-.342,2.477,2.477,0,0,1-1.635-2.433q0-6.974,0-13.948a1.18,1.18,0,0,1,.011-.266.5.5,0,0,1,.979.005,1.6,1.6,0,0,1,.011.333q0,4.455,0,8.909v.434h.382c.968,0,1.935,0,2.9,0a1.045,1.045,0,0,1,1.063.7c.311.749.642,1.489.956,2.236.245.582-.032.99-.671.991q-2.119,0-4.238,0H5.174a7.753,7.753,0,0,0,.12,1.173A1.445,1.445,0,0,0,6.6,29.963c.133.009.267,0,.4,0,6.685,0,13.37-.02,20.054.017a1.71,1.71,0,0,0,1.875-2.22h-.35q-2.119,0-4.238,0c-.658,0-.928-.406-.673-1.012.315-.747.642-1.489.956-2.236a1.031,1.031,0,0,1,1.042-.678c.968,0,1.935,0,2.9,0h.393v-.39q0-8.976,0-17.952A1.522,1.522,0,0,0,27.277,3.8H6.889A1.522,1.522,0,0,0,5.206,5.5q0,3.07,0,6.14a2.2,2.2,0,0,1-.005.3.5.5,0,0,1-.99-.017c-.016-.266-.005-.534-.005-.8,0-1.089,0-2.178,0-3.291H3v.355q0,2.77,0,5.539c0,.793-.366,1.155-1.165,1.156-.2,0-.4-.015-.6,0A1.115,1.115,0,0,1,0,14.149V7.542A1.149,1.149,0,0,1,1.237,6.8c.81.028,1.622.007,2.433.007H4.2c0-.235.014-.424,0-.61C3.992,3.8,5.244,2.6,7.585,2.8c.273.024.549,0,.857,0,0-.335,0-.632,0-.93A1.7,1.7,0,0,1,9.052.487,5.676,5.676,0,0,1,9.945,0H24.227c1.42.417,1.62,1.513,1.483,2.8.338,0,.626.021.91,0,2.343-.205,3.55,1.068,3.349,3.332-.019.217,0,.436,0,.676,1.017,0,1.993.02,2.968-.007a1.155,1.155,0,0,1,1.236.742v6.607a1.115,1.115,0,0,1-1.238.737c-.2-.017-.4,0-.6,0-.8,0-1.165-.362-1.165-1.156q0-2.769,0-5.539V7.833h-1.2v.421q0,10.043,0,20.086a2.481,2.481,0,0,1-1.636,2.466.3.3,0,0,0-.224.342c.009.422.018.846,0,1.267a1.768,1.768,0,0,1-1.171,1.632l-.3.125H22.559a1.994,1.994,0,0,1-1.483-2.291c.023-.294,0-.592,0-.888H13.09c0,.491.01.956,0,1.421a1.718,1.718,0,0,1-.82,1.447,4.948,4.948,0,0,1-.654.31ZM9.454,2.791H24.731c0-.242,0-.473,0-.7,0-.806-.28-1.087-1.079-1.087H10.513c-.089,0-.178,0-.267,0a.8.8,0,0,0-.787.758c-.026.33-.005.663-.005,1.029m2.632,28.2H7.071c0,.5-.018.973.006,1.448a.776.776,0,0,0,.779.727q1.718.021,3.437,0a.782.782,0,0,0,.788-.754c.021-.465,0-.931,0-1.421m10,0c0,.483-.011.928,0,1.372a.8.8,0,0,0,.807.808q1.7.019,3.4,0a.774.774,0,0,0,.791-.676c.033-.495.008-.993.008-1.5ZM9.411,26.751c-.263-.613-.509-1.2-.775-1.785a.345.345,0,0,0-.267-.12c-.988-.008-1.977-.006-2.965,0a.883.883,0,0,0-.174.034v1.875Zm15.357-.012h4.175v-1.9c-1.088,0-2.152,0-3.216.007a.3.3,0,0,0-.213.155c-.253.565-.491,1.137-.746,1.735M1.025,13.867h.96V7.824h-.96Zm32.14-6.03h-.972v6.019h.972Z" fill="#cd001c"/>
      <path id="Path_544" data-name="Path 544" d="M80.627,89.914H71.084a1.188,1.188,0,0,1-1.335-1.334q0-5.372,0-10.745A1.189,1.189,0,0,1,71.083,76.5H90.17a1.19,1.19,0,0,1,1.336,1.335q0,5.372,0,10.745a1.189,1.189,0,0,1-1.335,1.335H80.627M80.644,77.5c-3.159,0-6.317,0-9.476-.006-.309,0-.427.072-.426.407q.017,5.305,0,10.61c0,.333.114.407.424.407q9.459-.011,18.919,0c.347,0,.427-.112.426-.44-.01-3.515-.006-7.029-.007-10.544,0-.435,0-.436-.451-.436H80.644" transform="translate(-63.541 -69.691)" fill="#cd001c"/>
      <path id="Path_545" data-name="Path 545" d="M123.643,250.672c.2.459.383.874.565,1.288.3.681.6,1.36.9,2.044a.3.3,0,0,0,.322.209c2.236-.006,4.471,0,6.707-.009a.335.335,0,0,0,.26-.127c.5-1.111.994-2.228,1.515-3.405h-.789c-.389,0-.779.008-1.168,0a.484.484,0,0,1-.5-.482.455.455,0,0,1,.438-.5c.767-.022,1.536-.041,2.3.008a.871.871,0,0,1,.694,1.226c-.127.331-.285.651-.428.976-.385.874-.778,1.745-1.151,2.624a1.033,1.033,0,0,1-1.057.7q-3.487-.016-6.974,0a1.018,1.018,0,0,1-1.033-.68c-.5-1.162-1.022-2.316-1.53-3.476a.913.913,0,0,1,.886-1.386q2.936-.006,5.873,0c.033,0,.067,0,.1,0a.5.5,0,0,1,.537.512.5.5,0,0,1-.559.486c-1.557,0-3.114,0-4.672,0h-1.238" transform="translate(-111.688 -227.446)" fill="#cd001c"/>
      <path id="Path_546" data-name="Path 546" d="M132.42,54.977h-5.072a1.383,1.383,0,0,1-.3-.011.5.5,0,0,1,0-.979,1.4,1.4,0,0,1,.3-.011h10.21a1.407,1.407,0,0,1,.3.011.5.5,0,0,1,0,.979,1.389,1.389,0,0,1-.3.011H132.42" transform="translate(-115.368 -49.171)" fill="#cd001c"/>
      <path id="Path_547" data-name="Path 547" d="M163.221,276.242c-.733,0-1.466,0-2.2,0-.387,0-.606-.193-.6-.51s.219-.488.59-.488q2.215,0,4.43,0c.386,0,.606.2.6.512s-.219.485-.59.487c-.744,0-1.488,0-2.232,0" transform="translate(-146.147 -250.746)" fill="#cd001c"/>
      <path id="Path_548" data-name="Path 548" d="M95.453,55.025a.5.5,0,1,1,.484-.522.494.494,0,0,1-.484.522" transform="translate(-86.504 -49.221)" fill="#cd001c"/>
      <path id="Path_549" data-name="Path 549" d="M278.967,54.526a.493.493,0,1,1-.477-.5.5.5,0,0,1,.477.5" transform="translate(-253.243 -49.22)" fill="#cd001c"/>
    </g>
  </g>
</svg>
