<svg id="Group_304" data-name="Group 304" xmlns="http://www.w3.org/2000/svg" xmlns:xlink="http://www.w3.org/1999/xlink" width="23.14" height="31.188" viewBox="0 0 23.14 31.188">
  <defs>
    <clipPath id="clip-path">
      <rect id="Rectangle_175" data-name="Rectangle 175" width="23.14" height="31.188" fill="#cd001c"/>
    </clipPath>
  </defs>
  <g id="Group_303" data-name="Group 303" clip-path="url(#clip-path)">
    <path id="Path_536" data-name="Path 536" d="M2.25,31.188c-.04-.029-.08-.058-.121-.085a.592.592,0,0,1-.282-.679.6.6,0,0,1,.612-.451c.781-.006,1.563,0,2.344,0h5.585c-.147-.212-.259-.376-.373-.538L2.064,18.175A11.575,11.575,0,0,1,10.574.049a1.378,1.378,0,0,0,.2-.049h1.584c.608.1,1.223.172,1.824.305a11.572,11.572,0,0,1,8.779,9.282,11.42,11.42,0,0,1-2.037,8.8c-.605.852-1.206,1.707-1.811,2.559a.6.6,0,0,1-.654.282.529.529,0,0,1-.461-.5,1.011,1.011,0,0,1,.179-.555c.578-.846,1.172-1.681,1.769-2.514a10.352,10.352,0,1,0-16.736.036q4.068,5.736,8.113,11.487l.238.333c.078-.1.144-.188.2-.274l3.02-4.277a2.293,2.293,0,0,1,.2-.267.6.6,0,0,1,.983.669,1.891,1.891,0,0,1-.178.282q-1.412,2-2.826,4c-.062.089-.12.181-.211.319h.366q3.746,0,7.492,0a.628.628,0,0,1,.676.452.617.617,0,0,1-.337.708.619.619,0,0,0-.067.057Z" transform="translate(0)" fill="#cd001c"/>
    <path id="Path_537" data-name="Path 537" d="M74.954,80.486a5.482,5.482,0,1,1,5.483,5.481,5.491,5.491,0,0,1-5.483-5.481m5.485-4.264A4.264,4.264,0,1,0,84.7,80.48a4.271,4.271,0,0,0-4.261-4.258" transform="translate(-68.866 -68.911)" fill="#cd001c"/>
    <path id="Path_538" data-name="Path 538" d="M203.691,275.12a.607.607,0,1,1-.606-.593.614.614,0,0,1,.606.593" transform="translate(-186.032 -252.23)" fill="#cd001c"/>
  </g>
</svg>
