<svg id="Group_310" data-name="Group 310" xmlns="http://www.w3.org/2000/svg" xmlns:xlink="http://www.w3.org/1999/xlink" width="20.057" height="21.902" viewBox="0 0 20.057 21.902">
  <defs>
    <clipPath id="clip-path">
      <rect id="Rectangle_182" data-name="Rectangle 182" width="20.057" height="21.902" fill="#fff"/>
    </clipPath>
  </defs>
  <g id="Group_309" data-name="Group 309" clip-path="url(#clip-path)">
    <path id="Path_550" data-name="Path 550" d="M9.438,64.773c-.464-.069-.933-.114-1.391-.21a9.762,9.762,0,0,1-6.378-4.311,10,10,0,0,1,1.376-12.71,9.773,9.773,0,0,1,2.942-1.986.909.909,0,0,1,1.229.434.893.893,0,0,1-.464,1.216,8.375,8.375,0,0,0-2.947,2.183,8.211,8.211,0,1,0,9.649-2.116.951.951,0,0,1-.667-1.081.912.912,0,0,1,1.279-.645,9.39,9.39,0,0,1,2.584,1.648,9.9,9.9,0,0,1,3.388,8.26,10.031,10.031,0,0,1-7.947,9.1c-.48.1-.969.146-1.454.218Z" transform="translate(0 -42.87)" fill="#fff"/>
    <path id="Path_551" data-name="Path 551" d="M161.142,0a.208.208,0,0,0,.046.038.906.906,0,0,1,.648.967q0,3.454,0,6.907c0,.1,0,.2,0,.3a.9.9,0,0,1-.908.908.887.887,0,0,1-.906-.908q-.007-3.646,0-7.292a.967.967,0,0,1,.695-.92Z" transform="translate(-150.892)" fill="#fff"/>
  </g>
</svg>
