<svg id="Group_296" data-name="Group 296" xmlns="http://www.w3.org/2000/svg" xmlns:xlink="http://www.w3.org/1999/xlink" width="31.82" height="30.795" viewBox="0 0 31.82 30.795">
  <defs>
    <clipPath id="clip-path">
      <rect id="Rectangle_171" data-name="Rectangle 171" width="31.82" height="30.795" fill="#cd001c"/>
    </clipPath>
  </defs>
  <g id="Group_295" data-name="Group 295" clip-path="url(#clip-path)">
    <path id="Path_508" data-name="Path 508" d="M0,2.235A2.9,2.9,0,0,1,.933.6,2.639,2.639,0,0,1,2.655,0q11.2-.005,22.4,0a2.549,2.549,0,0,1,2.654,2.612c.016,3.863.005,7.726,0,11.589,0,.04-.008.08-.015.141H26.683V13.94q0-5.593,0-11.185a1.546,1.546,0,0,0-1.147-1.665,2.4,2.4,0,0,0-.585-.053q-11.092,0-22.184,0a1.56,1.56,0,0,0-1.74,1.749q0,11.076,0,22.153A1.571,1.571,0,0,0,2.8,26.69q6.338,0,12.676,0h.418v1.027h-.316c-4.267,0-8.534-.013-12.8.007a2.635,2.635,0,0,1-2.739-2.2c0-.018-.023-.033-.035-.049V2.235" transform="translate(0 0)" fill="#cd001c"/>
    <path id="Path_509" data-name="Path 509" d="M497.64,474.6a7.7,7.7,0,1,1,7.7,7.686,7.711,7.711,0,0,1-7.7-7.686m14.37-.009a6.667,6.667,0,1,0-6.685,6.668,6.687,6.687,0,0,0,6.685-6.668" transform="translate(-481.22 -451.494)" fill="#cd001c"/>
    <rect id="Rectangle_160" data-name="Rectangle 160" width="23.566" height="1.003" transform="translate(2.072 4.123)" fill="#cd001c"/>
    <path id="Path_510" data-name="Path 510" d="M67.3,378.472l.744.7-1.235,1.208a9.948,9.948,0,0,1,.346,1.289,2.524,2.524,0,0,1-2.392,2.791,2.56,2.56,0,1,1,1.067-4.807.264.264,0,0,0,.372-.059c.361-.383.734-.753,1.1-1.123m-2.054,2.07a1.472,1.472,0,0,0-1.862.447,1.564,1.564,0,0,0,.149,1.989,1.54,1.54,0,0,0,2.01.149,1.465,1.465,0,0,0,.408-1.909l-.91,1-.8-.764,1-.916" transform="translate(-60.003 -365.984)" fill="#cd001c"/>
    <path id="Path_511" data-name="Path 511" d="M67.346,565.012l.707.689-1.224,1.215a9.8,9.8,0,0,1,.35,1.292,2.535,2.535,0,0,1-2.478,2.807,2.561,2.561,0,1,1,1.123-4.831.3.3,0,0,0,.424-.06c.354-.376.725-.735,1.1-1.111m-3.052,3.06,1-1.009a1.527,1.527,0,1,0,.351,2.543,1.439,1.439,0,0,0,.327-1.836l-.964,1.015-.714-.713" transform="translate(-60.029 -546.369)" fill="#cd001c"/>
    <path id="Path_512" data-name="Path 512" d="M67.319,191.833l.724.7-1.228,1.2a10.088,10.088,0,0,1,.348,1.3,2.531,2.531,0,0,1-2.307,2.784,2.56,2.56,0,1,1,.975-4.8.282.282,0,0,0,.4-.073c.357-.373.725-.736,1.093-1.106m-2.01,2.066a1.527,1.527,0,1,0,.339,2.507,1.423,1.423,0,0,0,.306-1.806l-.9,1.008-.775-.78,1.035-.928" transform="translate(-60.01 -185.503)" fill="#cd001c"/>
    <rect id="Rectangle_161" data-name="Rectangle 161" width="8.69" height="0.987" transform="translate(8.749 14.393)" fill="#cd001c"/>
    <rect id="Rectangle_162" data-name="Rectangle 162" width="8.694" height="0.997" transform="translate(8.738 8.229)" fill="#cd001c"/>
    <rect id="Rectangle_163" data-name="Rectangle 163" width="7.133" height="0.994" transform="translate(13.364 10.284)" fill="#cd001c"/>
    <path id="Path_513" data-name="Path 513" d="M270.82,622.123v1.012h-6.666a8.364,8.364,0,0,1,.012-.842c.007-.064.162-.161.25-.162.766-.013,1.532-.008,2.3-.008h4.106Z" transform="translate(-255.434 -601.595)" fill="#cd001c"/>
    <path id="Path_514" data-name="Path 514" d="M560.253,250.484V249.5h5.127v.986Z" transform="translate(-541.767 -241.266)" fill="#cd001c"/>
    <rect id="Rectangle_164" data-name="Rectangle 164" width="4.061" height="0.997" transform="translate(13.369 16.438)" fill="#cd001c"/>
    <rect id="Rectangle_165" data-name="Rectangle 165" width="3.555" height="0.992" transform="translate(8.744 16.444)" fill="#cd001c"/>
    <rect id="Rectangle_166" data-name="Rectangle 166" width="3.559" height="0.989" transform="translate(8.738 22.607)" fill="#cd001c"/>
    <rect id="Rectangle_167" data-name="Rectangle 167" width="3.554" height="1" transform="translate(8.739 10.281)" fill="#cd001c"/>
    <rect id="Rectangle_168" data-name="Rectangle 168" width="2.011" height="0.992" transform="translate(18.486 14.391)" fill="#cd001c"/>
    <rect id="Rectangle_169" data-name="Rectangle 169" width="2.017" height="0.982" transform="translate(13.367 22.608)" fill="#cd001c"/>
    <path id="Path_515" data-name="Path 515" d="M125.059,62.695h1.008c0,.3.009.587-.008.871,0,.052-.114.136-.179.14-.265.016-.532.007-.82.007Z" transform="translate(-120.933 -60.626)" fill="#cd001c"/>
    <path id="Path_516" data-name="Path 516" d="M186.959,63.9V62.888h1.02c0,.29.009.575-.008.86,0,.054-.111.141-.175.145-.266.016-.533.007-.837.007" transform="translate(-180.79 -60.813)" fill="#cd001c"/>
    <rect id="Rectangle_170" data-name="Rectangle 170" width="0.991" height="0.991" transform="translate(2.068 2.079)" fill="#cd001c"/>
    <path id="Path_517" data-name="Path 517" d="M615.676,580.664l.7.727c-.06.065-.133.147-.211.224l-5.75,5.75c-.471.47-.792.417-1.092-.181s-.607-1.215-.919-1.838l.911-.457.721,1.421,5.636-5.647" transform="translate(-588.333 -561.505)" fill="#cd001c"/>
  </g>
</svg>
