<svg id="Group_351" data-name="Group 351" xmlns="http://www.w3.org/2000/svg" xmlns:xlink="http://www.w3.org/1999/xlink" width="61.151" height="59.152" viewBox="0 0 61.151 59.152">
  <defs>
    <clipPath id="clip-path">
      <rect id="Rectangle_172" data-name="Rectangle 172" width="61.151" height="59.152" fill="#c81c8e"/>
    </clipPath>
  </defs>
  <g id="Group_297" data-name="Group 297" clip-path="url(#clip-path)">
    <path id="Path_518" data-name="Path 518" d="M37.6,58.981a7.143,7.143,0,0,1-3.7-.925,6.223,6.223,0,0,0-6.633-.032,7.558,7.558,0,0,1-8-.338,7.773,7.773,0,0,1-2.713-2.973c-.313-.574-.6-1.165-.96-1.71a5.61,5.61,0,0,0-4.222-2.31,7.714,7.714,0,0,1-6.8-6.079,11.484,11.484,0,0,1-.026-3.749A5.583,5.583,0,0,0,2.9,35.69,8.483,8.483,0,0,1,.078,30.581a7.75,7.75,0,0,1,1.757-6.146,14.236,14.236,0,0,1,1.149-1.23,5.215,5.215,0,0,0,1.55-5A8.267,8.267,0,0,1,5.866,11.47a7.549,7.549,0,0,1,5.346-3.149,6.17,6.17,0,0,0,5.193-3.713A7.692,7.692,0,0,1,23.9.023,7.3,7.3,0,0,1,27.51,1.05a5.992,5.992,0,0,0,6.184,0c4.423-2.249,8.8-.827,11.078,3.6a5.93,5.93,0,0,0,4.871,3.611,7.993,7.993,0,0,1,7,9.858,5.328,5.328,0,0,0,1.612,5.173,8.558,8.558,0,0,1,2.82,5.113,7.784,7.784,0,0,1-1.753,6.149,13.433,13.433,0,0,1-1.148,1.231,5.2,5.2,0,0,0-1.555,4.992A8.4,8.4,0,0,1,55.6,47.055a8.214,8.214,0,0,1-6.278,3.751,5.274,5.274,0,0,0-4.319,3.156,8.031,8.031,0,0,1-4.088,4.249,28.906,28.906,0,0,1-3.267.942ZM53.931,16.525a5.068,5.068,0,0,0-3.915-5.27c-.639-.14-1.289-.225-1.928-.364a8.379,8.379,0,0,1-5.817-4.837c-1.585-3.109-4.311-4-7.388-2.4a8.675,8.675,0,0,1-8.566.022c-3.142-1.634-5.867-.758-7.44,2.393a8.594,8.594,0,0,1-7.07,5.055A5,5,0,0,0,7.6,14.209a5.611,5.611,0,0,0-.243,3.377,8.124,8.124,0,0,1-2.427,7.743q-.3.293-.589.6a5.025,5.025,0,0,0-.029,7.088c.364.4.757.766,1.115,1.167a7.891,7.891,0,0,1,2.042,6.4,12.393,12.393,0,0,0-.106,3.338A4.875,4.875,0,0,0,11.9,47.873a8.346,8.346,0,0,1,6.878,4.883,8.3,8.3,0,0,0,.544.98,4.669,4.669,0,0,0,4.7,2.3,10.007,10.007,0,0,0,2.881-1,8.007,8.007,0,0,1,7.293-.007c.441.215.88.436,1.329.632a5.007,5.007,0,0,0,6.4-2.053c.3-.5.556-1.028.842-1.537a7.785,7.785,0,0,1,5.754-4.044c.575-.1,1.156-.189,1.718-.343a5.049,5.049,0,0,0,3.577-6.133,8.284,8.284,0,0,1,2.56-8.03,8.591,8.591,0,0,0,.673-.715,5,5,0,0,0-.022-6.615c-.426-.5-.913-.941-1.345-1.432A7.723,7.723,0,0,1,53.7,18.4c.09-.7.173-1.392.234-1.878" transform="translate(-0.001 0)" fill="#c81c8e"/>
    <path id="Path_519" data-name="Path 519" d="M122.442,93.2c.46.374,1,.611,1.165,1a2.626,2.626,0,0,1-.076,1.445c-.047.216-.322.387-.5.568q-10.043,10.048-20.089,20.094a6.181,6.181,0,0,1-.455.436,1.429,1.429,0,0,1-1.916-.035,1.444,1.444,0,0,1-.1-1.968,3.7,3.7,0,0,1,.288-.306q10.193-10.2,20.395-20.383a8.31,8.31,0,0,1,1.3-.856" transform="translate(-81.388 -75.76)" fill="#c81c8e"/>
    <path id="Path_520" data-name="Path 520" d="M99.58,78.122a6.1,6.1,0,1,1,6.076,6.15,6.077,6.077,0,0,1-6.076-6.15m9.31.014a3.223,3.223,0,0,0-3.2-3.218,3.277,3.277,0,0,0-3.253,3.258,3.228,3.228,0,0,0,3.222,3.2,3.176,3.176,0,0,0,3.23-3.237" transform="translate(-80.945 -58.576)" fill="#c81c8e"/>
    <path id="Path_521" data-name="Path 521" d="M174.174,184.057a6.1,6.1,0,1,1-6.075-6.134,6.084,6.084,0,0,1,6.075,6.134m-9.311.012a3.211,3.211,0,0,0,3.212,3.2,3.265,3.265,0,0,0,3.24-3.266,3.231,3.231,0,0,0-3.306-3.184,3.179,3.179,0,0,0-3.147,3.25" transform="translate(-131.656 -144.627)" fill="#c81c8e"/>
  </g>
</svg>
