<svg xmlns="http://www.w3.org/2000/svg" xmlns:xlink="http://www.w3.org/1999/xlink" width="34" height="34" viewBox="0 0 34 34">
  <defs>
    <clipPath id="clip-path">
      <rect id="Rectangle_176" data-name="Rectangle 176" width="34" height="34" transform="translate(0 -0.364)" fill="#cd001c"/>
    </clipPath>
  </defs>
  <g id="Group_306" data-name="Group 306" transform="translate(0.33 0.694)">
    <g id="Group_305" data-name="Group 305" transform="translate(-0.33 -0.33)" clip-path="url(#clip-path)">
      <path id="Path_539" data-name="Path 539" d="M0,137.6c.036-.075.076-.149.107-.226A1.611,1.611,0,0,1,1.551,136.3c.1-.008.194-.01.291-.01.782-.005,1.069-.232,1.185-1.009a.837.837,0,0,0-.177-.522c-.139-.2-.346-.356-.5-.548a1.579,1.579,0,0,1-.013-2.031,23.3,23.3,0,0,1,1.851-1.858,1.569,1.569,0,0,1,2.057.015c.183.151.346.325.516.492a.593.593,0,0,0,.683.146c.16-.064.321-.128.479-.2a.588.588,0,0,0,.383-.583c0-.205-.006-.411.006-.616A1.621,1.621,0,0,1,9.891,128c.788-.026,1.578-.026,2.366,0a1.607,1.607,0,0,1,1.567,1.553c.005.086.008.173.009.259.006.8.2,1.049,1,1.191a.809.809,0,0,0,.522-.163c.212-.144.372-.36.575-.52a1.576,1.576,0,0,1,2.057.028c.624.565,1.221,1.164,1.788,1.786a1.584,1.584,0,0,1,.017,2.083c-.156.192-.338.364-.51.543a.579.579,0,0,0-.136.655c.046.121.108.237.147.359a.712.712,0,0,0,.791.522,3.23,3.23,0,0,1,.9.084,1.545,1.545,0,0,1,1.141,1.453c.024.8.029,1.6,0,2.4a1.623,1.623,0,0,1-1.576,1.585c-.075,0-.151,0-.227,0-.818,0-1.04.168-1.2.986a.854.854,0,0,0,.173.549c.135.2.347.355.5.548a1.558,1.558,0,0,1,.022,2,22.807,22.807,0,0,1-1.9,1.9,1.571,1.571,0,0,1-1.98-.007c-.2-.161-.382-.35-.569-.529a.572.572,0,0,0-.681-.136c-.148.066-.3.13-.448.188a.6.6,0,0,0-.408.6c0,.173,0,.346,0,.519a1.645,1.645,0,0,1-1.177,1.607.942.942,0,0,0-.134.074H9.665a1.362,1.362,0,0,0-.144-.066A1.661,1.661,0,0,1,8.3,148.412a2.293,2.293,0,0,0-.013-.548.854.854,0,0,0-.278-.471c-.713-.468-.932-.433-1.537.159-.023.023-.045.046-.069.068A1.662,1.662,0,0,1,4,147.633c-.518-.489-1.015-1-1.514-1.509a1.52,1.52,0,0,1-.447-1.57,3.052,3.052,0,0,1,.645-1.017c.416-.475.452-.521.2-1.111-.025-.06-.053-.118-.075-.179a.6.6,0,0,0-.647-.43,4.95,4.95,0,0,1-.615-.008A1.729,1.729,0,0,1,0,140.457V137.6m16.941,9.464a1.561,1.561,0,0,0,.384-.2c.528-.511,1.052-1.027,1.56-1.558a.529.529,0,0,0,0-.786,4.626,4.626,0,0,0-.409-.416c-1.1-.989-.084-3.2,1-3.342.149-.019.3-.044.448-.052.172-.009.346.006.519-.005a.552.552,0,0,0,.581-.6c.009-.713.01-1.427,0-2.14a.533.533,0,0,0-.569-.572c-.129-.008-.259,0-.389,0A2.154,2.154,0,0,1,18,134.942a1.885,1.885,0,0,1,.581-1.058c.64-.636.636-.769-.009-1.414l-.894-.894c-.69-.69-.778-.69-1.484,0-.054.053-.109.106-.167.154a1.522,1.522,0,0,1-1.45.356c-1.145-.342-1.925-.728-1.855-2.246,0-.043,0-.087,0-.13a.557.557,0,0,0-.627-.615c-.519-.008-1.038,0-1.557,0-1.1,0-1.111.015-1.134,1.125a1.631,1.631,0,0,1-.991,1.542c-.2.1-.414.185-.627.261a1.628,1.628,0,0,1-1.744-.35c-.153-.137-.288-.294-.442-.429a.528.528,0,0,0-.786-.015q-.809.772-1.58,1.584a.533.533,0,0,0,.017.761,4.993,4.993,0,0,0,.409.416c1.089.992.112,3.127-.933,3.329a6.114,6.114,0,0,1-.933.076c-.49.018-.687.2-.691.693q-.007.957,0,1.913c0,.508.2.707.707.714.1,0,.195,0,.292,0a2.167,2.167,0,0,1,2.01,2.571,2.255,2.255,0,0,1-.717,1.092c-.422.417-.418.669,0,1.094q.606.609,1.216,1.215c.472.471.7.48,1.161,0a1.8,1.8,0,0,1,1.526-.706,2.859,2.859,0,0,1,1.581.682,1.539,1.539,0,0,1,.517,1.149c.005.151,0,.3,0,.454,0,.566.192.752.766.753.5,0,.994,0,1.492,0,.985,0,1.049-.061,1.06-1.036a1.705,1.705,0,0,1,1.148-1.707c.13-.052.257-.112.388-.164a1.67,1.67,0,0,1,1.884.365c.134.126.251.272.4.383a2.512,2.512,0,0,0,.4.209" transform="translate(0.426 -116.485)" fill="#cd001c"/>
      <path id="Path_540" data-name="Path 540" d="M96.961,16.929a4.915,4.915,0,0,1-.333.655,1.673,1.673,0,0,1-1.464.685c-.5,0-.995.007-1.492,0a.631.631,0,0,0-.666.452c-.169.443-.348.884-.546,1.314a.644.644,0,0,0,.156.817c.357.346.707.7,1.055,1.055a1.664,1.664,0,0,1,0,2.523q-1.083,1.1-2.18,2.177a1.661,1.661,0,0,1-2.5.005c-.558-.543-1.106-1.1-1.653-1.649-.3-.3-.327-.649-.082-.883s.559-.2.858.1c.531.523,1.056,1.054,1.585,1.58.41.407.669.41,1.071.009q1.045-1.041,2.087-2.087c.38-.382.38-.642,0-1.023-.349-.354-.7-.7-1.052-1.057a1.649,1.649,0,0,1-.362-1.988q.279-.655.543-1.316A1.647,1.647,0,0,1,93.6,17.163c.519-.008,1.038,0,1.557,0s.7-.207.7-.719q0-1.492,0-2.984c0-.524-.2-.724-.727-.729-.508,0-1.016,0-1.524,0A1.627,1.627,0,0,1,92,11.632c-.193-.469-.384-.939-.583-1.4a1.624,1.624,0,0,1,.358-1.905c.36-.373.735-.733,1.1-1.1a.587.587,0,0,0,0-.977q-1.072-1.083-2.155-2.156a.586.586,0,0,0-.977,0c-.364.355-.717.72-1.08,1.075a1.642,1.642,0,0,1-1.959.373c-.447-.189-.9-.373-1.346-.555a1.644,1.644,0,0,1-1.126-1.647c-.006-.508,0-1.016,0-1.524-.006-.488-.211-.7-.692-.7q-1.524-.007-3.048,0c-.484,0-.682.2-.69.7s0,.995,0,1.492A1.662,1.662,0,0,1,78.612,5c-.442.173-.878.36-1.315.546A1.617,1.617,0,0,1,75.416,5.2c-.384-.364-.75-.748-1.128-1.119a.586.586,0,0,0-.976,0q-1.082,1.073-2.156,2.155a.591.591,0,0,0,0,.978c.515.524,1.039,1.04,1.556,1.562a1.545,1.545,0,0,1,.229.271.5.5,0,0,1-.087.651.5.5,0,0,1-.652.084,1.159,1.159,0,0,1-.226-.182c-.544-.541-1.091-1.08-1.627-1.629a1.663,1.663,0,0,1,0-2.5q1.08-1.1,2.178-2.179a1.666,1.666,0,0,1,2.524-.005c.347.341.688.688,1.033,1.03a.611.611,0,0,0,.865.164c.417-.178.831-.364,1.256-.518a.654.654,0,0,0,.483-.709c-.013-.486-.009-.973,0-1.459A1.671,1.671,0,0,1,79.956.055.329.329,0,0,0,80.032,0h3.957a1.851,1.851,0,0,1,1.359,2.108c-.024.4.005.8-.006,1.2a.612.612,0,0,0,.437.641c.45.179.9.36,1.343.559a.628.628,0,0,0,.788-.151c.353-.364.713-.722,1.077-1.076a1.66,1.66,0,0,1,2.5,0q1.111,1.088,2.2,2.2a1.659,1.659,0,0,1,0,2.5c-.355.363-.712.723-1.077,1.077a.626.626,0,0,0-.151.788c.2.441.378.893.556,1.344a.612.612,0,0,0,.641.436c.518-.011,1.037-.007,1.555,0a1.659,1.659,0,0,1,1.445.72,4.646,4.646,0,0,1,.307.633Z" transform="translate(-63.325 0.426)" fill="#cd001c"/>
      <path id="Path_541" data-name="Path 541" d="M155.85,89.713a7.149,7.149,0,0,1,7.061,5.874A7.034,7.034,0,0,1,161,101.909a.565.565,0,0,1-.83.093.547.547,0,0,1,.018-.832,6.227,6.227,0,0,0,1.682-3.259,6.082,6.082,0,0,0-10.082-5.546,2.769,2.769,0,0,1-.321.272.537.537,0,0,1-.728-.094.52.52,0,0,1,.038-.733,10.112,10.112,0,0,1,1.128-.919,7.058,7.058,0,0,1,3.943-1.178" transform="translate(-137.157 -81.528)" fill="#cd001c"/>
      <path id="Path_542" data-name="Path 542" d="M75.455,198.481A4.975,4.975,0,0,1,80.4,203.5a4.82,4.82,0,0,1-5.035,4.917,4.969,4.969,0,0,1,.086-9.937m-.04,1.106a3.869,3.869,0,1,0,3.874,3.866,3.862,3.862,0,0,0-3.874-3.866" transform="translate(-63.933 -180.888)" fill="#cd001c"/>
    </g>
  </g>
</svg>
