<svg id="Group_294" data-name="Group 294" xmlns="http://www.w3.org/2000/svg" xmlns:xlink="http://www.w3.org/1999/xlink" width="26" height="26.01" viewBox="0 0 26 26.01">
  <defs>
    <clipPath id="clip-path">
      <rect id="Rectangle_159" data-name="Rectangle 159" width="26" height="26.01" fill="#cd001c"/>
    </clipPath>
  </defs>
  <g id="Group_293" data-name="Group 293" clip-path="url(#clip-path)">
    <path id="Path_505" data-name="Path 505" d="M3.616,3.472a4.346,4.346,0,0,1,8.515,0h12.9a1.784,1.784,0,0,1,.35.019A.865.865,0,0,1,25.26,5.2c-.09.006-.18,0-.271,0H12.141a4.346,4.346,0,0,1-8.515,0H1.178c-.7,0-1.1-.321-1.1-.874s.4-.859,1.082-.859H3.616m6.86.873a2.6,2.6,0,1,0-2.6,2.593,2.6,2.6,0,0,0,2.6-2.593" transform="translate(-0.076 0)" fill="#cd001c"/>
    <path id="Path_506" data-name="Path 506" d="M14.008,125.254H1.111a1.674,1.674,0,0,1-.376-.026A.864.864,0,0,1,.9,123.522c.09,0,.18,0,.271,0H14a4.347,4.347,0,0,1,8.517,0h.279c.776,0,1.552,0,2.328,0a.869.869,0,1,1-.007,1.732c-.767,0-1.534,0-2.3,0h-.287a4.347,4.347,0,0,1-8.516,0m4.262-3.466a2.6,2.6,0,1,0,2.589,2.582,2.6,2.6,0,0,0-2.589-2.582" transform="translate(-0.06 -111.383)" fill="#cd001c"/>
    <path id="Path_507" data-name="Path 507" d="M17.263,245.308a4.346,4.346,0,0,1-8.515,0H8.44q-3.75,0-7.5,0a.865.865,0,0,1-.824-1.285.879.879,0,0,1,.836-.448q2.531.006,5.063,0H8.738a4.346,4.346,0,0,1,8.515,0h.308q3.75,0,7.5,0a.872.872,0,0,1,.874,1.188.887.887,0,0,1-.885.544q-2.3,0-4.6,0H17.263ZM10.4,244.43a2.6,2.6,0,1,0,2.609-2.589A2.6,2.6,0,0,0,10.4,244.43" transform="translate(0 -222.77)" fill="#cd001c"/>
  </g>
</svg>
