<svg id="Group_300" data-name="Group 300" xmlns="http://www.w3.org/2000/svg" xmlns:xlink="http://www.w3.org/1999/xlink" width="29.636" height="29.628" viewBox="0 0 29.636 29.628">
  <defs>
    <clipPath id="clip-path">
      <rect id="Rectangle_173" data-name="Rectangle 173" width="29.636" height="29.628" fill="#cd001c"/>
    </clipPath>
  </defs>
  <g id="Group_299" data-name="Group 299" clip-path="url(#clip-path)">
    <path id="Path_522" data-name="Path 522" d="M29.287,29.628H0v-.637a.676.676,0,0,1,.7-.354c.419.017.84,0,1.276,0v-.387q0-4.179,0-8.358a1.5,1.5,0,0,1,1.134-1.577c.109-.028.221-.042.342-.064v-8.4c-.094-.024-.177-.046-.26-.065a3.9,3.9,0,0,1-3.1-3.064C.054,6.608.028,6.486,0,6.365V5.5c.02-.083.044-.166.059-.25a3.947,3.947,0,1,1,4.872,4.5c-.155.042-.313.073-.466.109v8.385a3.843,3.843,0,0,1,.593.175,1.508,1.508,0,0,1,.869,1.5q-.009,4.18,0,8.36v.351h5.948V26.189a1.084,1.084,0,0,0-.182-.022,1.1,1.1,0,0,1-1.209-.812c-.3-.741-.641-1.464-.942-2.2a1.975,1.975,0,0,1-.152-.722Q9.375,12.565,9.381,2.7c0-.164,0-.328.014-.491A2.35,2.35,0,0,1,11.75,0Q19.5,0,27.258.014A2.563,2.563,0,0,1,28.411.32a2.347,2.347,0,0,1,1.225,2.259q-.008,9.965,0,19.93a1.04,1.04,0,0,1-.051.4c-.392.921-.788,1.84-1.2,2.752a.861.861,0,0,1-.815.5c-.13,0-.26,0-.428,0v2.477h.274c.559,0,1.119-.006,1.678,0,.373.006.626.29.514.6a1.551,1.551,0,0,1-.315.389M16.3,22.205c0-.266,0-.533,0-.8a1.511,1.511,0,0,1,1.674-1.659q1.519,0,3.038,0a1.525,1.525,0,0,1,1.7,1.692c0,.255,0,.51,0,.765h5.929v-.244q0-9.748,0-19.5A1.383,1.383,0,0,0,27.157.987H11.851a1.779,1.779,0,0,0-.316.019,1.4,1.4,0,0,0-1.167,1.521q0,9.69,0,19.381v.3ZM10.64,23.219c.224.519.461,1.012.648,1.523a.589.589,0,0,0,.665.446c4.629-.016,9.258-.011,13.887-.011.492,0,.984,0,1.476,0,.083,0,.214-.033.24-.089.28-.609.544-1.226.823-1.866ZM6.91,5.931a2.989,2.989,0,0,0-2.961-2.97A3,3,0,0,0,.987,5.906,2.992,2.992,0,0,0,3.938,8.888,2.98,2.98,0,0,0,6.91,5.931m8.879,22.686h7.429V26.18H15.789Zm-12.83,0H4.933V22.848c0-.983,0-1.966,0-2.949,0-.478-.163-.633-.647-.637-.193,0-.386,0-.578,0-.608,0-.748.14-.748.748q0,4.149,0,8.3ZM17.291,22.2h4.435c0-.274,0-.524,0-.774,0-.532-.157-.685-.693-.687-.819,0-1.639,0-2.458,0-.251,0-.5-.01-.752,0a.5.5,0,0,0-.53.552c-.008.3,0,.594,0,.9M24.2,26.18c0,.671-.01,1.316,0,1.959a.48.48,0,0,0,.5.5c.327.015.656.015.982,0a.433.433,0,0,0,.462-.4c.023-.68.008-1.361.008-2.056Zm-11.353,0c0,.674-.008,1.319,0,1.964a.476.476,0,0,0,.5.493c.317.015.636.013.954,0a.456.456,0,0,0,.5-.432c.023-.67.008-1.341.008-2.025Z" transform="translate(0 0.001)" fill="#cd001c"/>
    <path id="Path_523" data-name="Path 523" d="M164.812,88.616h6.451a1.521,1.521,0,0,1,1.7,1.688q0,3.254,0,6.507a1.52,1.52,0,0,1-1.686,1.681q-6.465,0-12.93,0a1.526,1.526,0,0,1-1.69-1.707q0-3.239,0-6.478a1.52,1.52,0,0,1,1.7-1.692h6.451m.01.986h-6.453c-.563,0-.72.157-.72.723q0,3.226,0,6.452c0,.568.155.726.719.726h12.907c.546,0,.7-.162.705-.71q0-3.24,0-6.481c0-.55-.159-.71-.7-.71h-6.453" transform="translate(-145.307 -82.194)" fill="#cd001c"/>
    <path id="Path_524" data-name="Path 524" d="M164.7,30.677c-2.1,0-4.2-.029-6.306.012a1.644,1.644,0,0,1-1.845-2,1.515,1.515,0,0,1,1.659-1.477q5.771,0,11.543,0c.5,0,1,0,1.5,0a1.5,1.5,0,0,1,1.6,1.594,3.151,3.151,0,0,1-.074.8,1.473,1.473,0,0,1-1.539,1.065q-3.269,0-6.538,0m0-.986h6.478a.6.6,0,0,0,.6-.256.781.781,0,0,0-.7-1.234H158.309a1.041,1.041,0,0,0-.343.025c-.12.043-.305.123-.317.208a2.746,2.746,0,0,0-.024.977c.068.3.4.279.662.279h6.421" transform="translate(-145.196 -25.241)" fill="#cd001c"/>
    <path id="Path_525" data-name="Path 525" d="M158.694,238.6a1.971,1.971,0,1,1,0,3.942,1.971,1.971,0,0,1,0-3.942m.016.986a.988.988,0,0,0-1,.986,1,1,0,0,0,.978.982.982.982,0,0,0,.989-.992.969.969,0,0,0-.97-.975" transform="translate(-145.367 -221.313)" fill="#cd001c"/>
    <path id="Path_526" data-name="Path 526" d="M327.212,240.563a1.971,1.971,0,0,1,3.943,0,1.971,1.971,0,1,1-3.943,0m.988,0a.983.983,0,0,0,.983,1,1,1,0,0,0,.984-.976.988.988,0,0,0-.991-.991.969.969,0,0,0-.976.969" transform="translate(-303.498 -221.314)" fill="#cd001c"/>
  </g>
</svg>
