<svg id="Group_355" data-name="Group 355" xmlns="http://www.w3.org/2000/svg" xmlns:xlink="http://www.w3.org/1999/xlink" width="63.846" height="63.83" viewBox="0 0 63.846 63.83">
  <defs>
    <clipPath id="clip-path">
      <rect id="Rectangle_173" data-name="Rectangle 173" width="63.846" height="63.83" fill="#f49024"/>
    </clipPath>
  </defs>
  <g id="Group_299" data-name="Group 299" clip-path="url(#clip-path)">
    <path id="Path_522" data-name="Path 522" d="M63.094,63.829H0V62.458a1.456,1.456,0,0,1,1.5-.764c.9.037,1.81.009,2.748.009V60.87q0-9,0-18.006a3.222,3.222,0,0,1,2.442-3.4c.234-.061.477-.09.736-.138V21.237c-.2-.051-.381-.1-.561-.141A8.393,8.393,0,0,1,.182,14.5C.117,14.236.06,13.975,0,13.714v-1.87c.043-.18.1-.358.127-.539a8.5,8.5,0,1,1,10.5,9.689c-.334.09-.674.158-1,.234V39.293a8.278,8.278,0,0,1,1.277.377,3.248,3.248,0,0,1,1.871,3.238q-.02,9-.005,18.01v.756H25.575V56.421a2.336,2.336,0,0,0-.392-.047,2.374,2.374,0,0,1-2.6-1.75c-.641-1.6-1.381-3.154-2.03-4.748a4.255,4.255,0,0,1-.327-1.556Q20.2,27.07,20.21,5.82c0-.353,0-.707.031-1.058A5.064,5.064,0,0,1,25.313.008q16.705-.017,33.41.024A5.522,5.522,0,0,1,61.208.69a5.057,5.057,0,0,1,2.638,4.866q-.017,21.469-.01,42.937a2.241,2.241,0,0,1-.109.856c-.845,1.984-1.7,3.964-2.589,5.928a1.856,1.856,0,0,1-1.756,1.088c-.279.009-.559,0-.921,0V61.7h.59c1.205,0,2.41-.013,3.615.007.8.013,1.348.624,1.106,1.282a3.34,3.34,0,0,1-.678.837M35.12,47.839c0-.574,0-1.149,0-1.724a3.254,3.254,0,0,1,3.606-3.575q3.272-.007,6.545,0c2.386,0,3.659,1.269,3.67,3.645,0,.55,0,1.1,0,1.648H61.716v-.525q0-21,0-42A2.978,2.978,0,0,0,58.5,2.128q-16.487,0-32.973,0a3.832,3.832,0,0,0-.682.042,3.01,3.01,0,0,0-2.514,3.277q0,20.876,0,41.753v.638Zm-12.2,2.185c.482,1.117.994,2.179,1.4,3.281a1.269,1.269,0,0,0,1.432.962c9.973-.035,19.945-.023,29.918-.023,1.06,0,2.119.009,3.179-.009.178,0,.461-.071.516-.192.6-1.313,1.171-2.641,1.773-4.02ZM14.886,12.779a6.438,6.438,0,0,0-6.379-6.4,6.465,6.465,0,0,0-6.38,6.344A6.446,6.446,0,0,0,8.484,19.15a6.42,6.42,0,0,0,6.4-6.37M34.015,61.652h16V56.4h-16Zm-27.641.006h4.253V49.223c0-2.118,0-4.236,0-6.353,0-1.029-.35-1.364-1.393-1.371-.415,0-.831,0-1.246,0-1.31,0-1.612.3-1.612,1.611q0,8.939,0,17.877ZM37.252,47.821h9.555c0-.589,0-1.128,0-1.667-.008-1.146-.338-1.476-1.494-1.479-1.765,0-3.531,0-5.3,0-.54,0-1.081-.022-1.62.01a1.069,1.069,0,0,0-1.142,1.189c-.017.64,0,1.281,0,1.948M52.134,56.4c0,1.446-.022,2.834.01,4.221a1.034,1.034,0,0,0,1.078,1.067c.7.032,1.412.033,2.116,0a.933.933,0,0,0,1-.855c.05-1.465.017-2.932.017-4.43Zm-24.458,0c0,1.453-.017,2.842.007,4.231a1.025,1.025,0,0,0,1.076,1.061c.684.032,1.371.028,2.055,0a.983.983,0,0,0,1.067-.931c.051-1.443.016-2.889.016-4.363Z" transform="translate(0 0.001)" fill="#f49024"/>
    <path id="Path_523" data-name="Path 523" d="M174.223,88.617h13.9c2.39,0,3.67,1.267,3.671,3.637q0,7.009,0,14.019a3.276,3.276,0,0,1-3.633,3.622q-13.928.006-27.857,0c-2.367,0-3.639-1.292-3.64-3.677q0-6.978,0-13.956c0-2.378,1.277-3.644,3.665-3.644h13.9m.021,2.123h-13.9c-1.213,0-1.551.338-1.552,1.558q0,6.95,0,13.9c0,1.224.334,1.564,1.548,1.565q13.9,0,27.805,0c1.176,0,1.518-.35,1.519-1.529q0-6.981,0-13.962c0-1.185-.343-1.53-1.515-1.531h-13.9" transform="translate(-132.201 -74.781)" fill="#f49024"/>
    <path id="Path_524" data-name="Path 524" d="M174.124,34.676c-4.529,0-9.059-.063-13.586.025-2.482.048-4.218-1.227-3.975-4.3a3.263,3.263,0,0,1,3.573-3.182q12.433,0,24.867,0c1.08,0,2.161-.009,3.241,0a3.232,3.232,0,0,1,3.439,3.435,6.788,6.788,0,0,1-.159,1.727,3.173,3.173,0,0,1-3.315,2.294q-7.043.009-14.085,0m.009-2.125H176q6.044,0,12.088,0a1.3,1.3,0,0,0,1.3-.552,1.683,1.683,0,0,0-1.5-2.659q-13.77,0-27.54,0a2.242,2.242,0,0,0-.739.055c-.258.093-.658.265-.684.447a5.915,5.915,0,0,0-.052,2.106c.148.637.854.6,1.426.6q6.916,0,13.832,0" transform="translate(-132.101 -22.964)" fill="#f49024"/>
    <path id="Path_525" data-name="Path 525" d="M160.967,238.6a4.246,4.246,0,1,1,0,8.491,4.246,4.246,0,0,1,0-8.491M161,240.73a2.129,2.129,0,0,0-2.147,2.123,2.155,2.155,0,0,0,2.106,2.115,2.115,2.115,0,0,0,2.13-2.137,2.088,2.088,0,0,0-2.089-2.1" transform="translate(-132.256 -201.352)" fill="#f49024"/>
    <path id="Path_526" data-name="Path 526" d="M327.212,242.822a4.247,4.247,0,0,1,8.494.01,4.247,4.247,0,1,1-8.494-.01m2.128,0a2.117,2.117,0,0,0,2.117,2.151,2.158,2.158,0,0,0,2.12-2.1,2.129,2.129,0,0,0-2.135-2.135,2.087,2.087,0,0,0-2.1,2.088" transform="translate(-276.125 -201.353)" fill="#f49024"/>
  </g>
</svg>
