<svg xmlns="http://www.w3.org/2000/svg" xmlns:xlink="http://www.w3.org/1999/xlink" width="35" height="35" viewBox="0 0 35 35">
  <defs>
    <clipPath id="clip-path">
      <rect id="Rectangle_158" data-name="Rectangle 158" width="35" height="35" transform="translate(0 -0.377)" fill="#cd001c"/>
    </clipPath>
  </defs>
  <g id="Group_292" data-name="Group 292" transform="translate(0 0.377)">
    <g id="Group_291" data-name="Group 291" clip-path="url(#clip-path)">
      <path id="Path_495" data-name="Path 495" d="M34.623,6.9v.541c-.066.129-.129.259-.2.386Q27.661,20.111,20.9,32.4a1.123,1.123,0,0,1-1.678.488c-.781-.424-1.559-.854-2.339-1.281-.8-.439-.931-.748-.74-1.644a2.085,2.085,0,0,0-.446-1.857c-.033.115-.056.176-.068.24-.314,1.669-.648,3.336-.93,5.011a1.49,1.49,0,0,1-.9,1.268h-.541a.5.5,0,0,0-.118-.057q-1.31-.247-2.622-.489a1.151,1.151,0,0,1-1.137-1.225,2.174,2.174,0,0,0-4.165-.76,1.113,1.113,0,0,1-1.385.718c-.863-.158-1.722-.346-2.59-.475A1.414,1.414,0,0,1,0,31.444V30.9a.511.511,0,0,0,.057-.118Q1.111,25.16,2.163,19.534c.182-.974.361-1.948.547-2.921a.483.483,0,0,1,.592-.454.486.486,0,0,1,.409.622c-.024.167-.063.332-.094.5Q2.383,23.867,1.151,30.456c-.163.875-.152.877.747.965a.309.309,0,0,0,.085-.026c.033-.152.073-.314.1-.478Q3.79,21.806,5.493,12.7c.1-.557.286-.688.843-.584q4.646.871,9.29,1.75c.455.086.6.314.52.775-.057.31-.122.618-.18.928q-1.481,7.9-2.96,15.8c-.128.683-.251,1.367-.381,2.078.262.055.491.1.72.15.194.038.282-.042.318-.242.147-.831.309-1.66.465-2.489q1.48-7.9,2.959-15.8c.117-.625.229-1.251.348-1.9L4.834,10.79c-.087.465-.162.862-.237,1.26-.13.686-.253,1.373-.394,2.056a.478.478,0,0,1-.586.416.488.488,0,0,1-.4-.6q.021-.151.049-.3Q4.233,8.477,5.2,3.334A1.124,1.124,0,0,1,6.671,2.309q1.412.257,2.82.534a1.115,1.115,0,0,1,.986,1.146,2.164,2.164,0,0,0,4.153.81,1.142,1.142,0,0,1,1.421-.726c.952.177,1.906.341,2.851.548.263.058.351-.021.461-.225.643-1.188,1.308-2.364,1.946-3.555A1.63,1.63,0,0,1,22.18,0h.541l2.713,1.491a1.18,1.18,0,0,1,.725,1.626,2.134,2.134,0,0,0,1.484,2.565,2.113,2.113,0,0,0,2.268-.656,1.08,1.08,0,0,1,1.335-.333,9.985,9.985,0,0,1,.919.5.5.5,0,0,1-.485.878A7.131,7.131,0,0,1,31,5.7c-.165-.1-.263-.073-.4.068A3.172,3.172,0,0,1,25.2,2.809a.293.293,0,0,0-.182-.394c-.794-.424-1.579-.863-2.369-1.3-.075-.041-.157-.07-.249-.109-.074.123-.139.226-.2.333-.592,1.074-1.155,2.165-1.784,3.217a5.888,5.888,0,0,0-.748,2.176A.373.373,0,0,0,19.9,7.2q3.6,1.963,7.192,3.941c1.1.6,2.206,1.208,3.341,1.83l3.185-5.786c-.355-.348-.39-.655-.131-.9.24-.224.567-.169.848.162a3.857,3.857,0,0,1,.287.445M2.984,31.619c.316.06.617.1.906.178.247.071.346,0,.455-.23A3.147,3.147,0,0,1,8.49,30.039a3.127,3.127,0,0,1,1.9,2.674c.013.119.1.3.186.328.331.094.678.135,1.051.2l3.457-18.452-8.64-1.628L2.984,31.619M19.464,10.435a7.483,7.483,0,0,0-.768,1.627c-.62,3.077-1.174,6.167-1.746,9.254a1,1,0,0,0,.026.272.969.969,0,0,0,.294-.089c.339-.242.652-.524,1.006-.74a.7.7,0,0,1,.579-.074.684.684,0,0,1,.267.517c.011.414-.07.83-.08,1.246a.565.565,0,0,0,.166.386c.275.249.585.458.871.7a.513.513,0,0,1-.163.942c-.38.138-.773.242-1.149.392a.613.613,0,0,0-.307.3c-.175.414-.3.848-.474,1.263a.5.5,0,0,1-.908.1c-.1-.136-.177-.287-.265-.432l-.5-.815L16.2,25.3c-.1.512-.2,1.023-.287,1.536-.008.046.056.117.1.157a3.17,3.17,0,0,1,1.073,3.373.277.277,0,0,0,.085.242c.3.185.622.347.955.528l9.06-16.456-7.729-4.241m-.616-4.8c-.982-.186-1.9-.347-2.812-.538a.422.422,0,0,0-.565.277A3.171,3.171,0,0,1,9.475,4.169c-.013-.246-.1-.331-.323-.369-.665-.112-1.328-.24-1.992-.361L6.242,3.27,5.021,9.791l12.605,2.373,1.222-6.528M19.213,9.2c.191.082.36.139.515.224q4.058,2.221,8.112,4.449c.641.352.68.5.325,1.143L19.238,31.227c-.069.125-.133.252-.211.4l.873.477L29.943,13.862,19.425,8.092,19.213,9.2m-2.5,13.351-.324,1.743c.629-.127.715.428,1.053.809a1.354,1.354,0,0,1,1.3-1.331,1.194,1.194,0,0,1-.676-1.6c-.477.35-.8.761-1.355.38" fill="#cd001c"/>
      <path id="Path_496" data-name="Path 496" d="M245.3,62.273a3.367,3.367,0,0,1,.4.146q3.212,1.757,6.419,3.521c.36.2.449.549.216.808a.531.531,0,0,1-.731.065q-2.245-1.239-4.5-2.468-.961-.527-1.922-1.056a.463.463,0,0,1-.273-.612c.072-.167.263-.283.383-.405" transform="translate(-222.801 -56.658)" fill="#cd001c"/>
      <path id="Path_497" data-name="Path 497" d="M64.85,257.448c.548.208.891-.076,1.152-.563a2.628,2.628,0,0,1,.467-.657.708.708,0,0,1,.52-.2.618.618,0,0,1,.375.37,7.4,7.4,0,0,1,.281,1.144.541.541,0,0,0,.433.477c.3.086.6.2.89.313.519.2.589.634.154.973-.319.249-.657.475-.97.73a.522.522,0,0,0-.176.325c-.035.426-.011.858-.066,1.28a.89.89,0,0,1-.292.551c-.209.158-.445.033-.636-.139-.251-.226-.521-.431-.761-.668a.409.409,0,0,0-.508-.088,5.669,5.669,0,0,1-.954.328.785.785,0,0,1-.61-.083.732.732,0,0,1-.1-.6c.122-.477.474-.954.427-1.4s-.474-.844-.723-1.27a.51.51,0,0,1,.456-.821c.2-.007.4,0,.643,0m.414,2.9c.883-.223.883-.223,1.7.28A1.361,1.361,0,0,1,67.82,259a1.23,1.23,0,0,1-1.181-1.253,1.241,1.241,0,0,1-1.525.764,1.341,1.341,0,0,1,.15,1.837" transform="translate(-57.911 -232.941)" fill="#cd001c"/>
      <path id="Path_498" data-name="Path 498" d="M80.725,168.054c-.134.723-.277,1.508-.424,2.293q-.261,1.392-.527,2.784c-.075.395-.318.6-.633.542-.3-.056-.44-.328-.367-.719q.465-2.486.933-4.972c.068-.361.265-.539.555-.51a.51.51,0,0,1,.463.583" transform="translate(-71.655 -152.368)" fill="#cd001c"/>
      <path id="Path_499" data-name="Path 499" d="M98.948,176.914c.157-.849.322-1.745.489-2.64q.229-1.227.463-2.452c.072-.381.272-.551.585-.5.335.051.488.286.416.677q-.466,2.52-.944,5.038a.53.53,0,0,1-.589.48c-.269-.03-.434-.247-.42-.6" transform="translate(-90.026 -155.864)" fill="#cd001c"/>
      <path id="Path_500" data-name="Path 500" d="M121.094,175.52c-.186,1-.375,2.014-.564,3.032q-.192,1.028-.385,2.056c-.076.4-.276.572-.608.516s-.468-.293-.394-.694q.466-2.522.946-5.041a.508.508,0,1,1,1.006.132" transform="translate(-108.383 -159.146)" fill="#cd001c"/>
      <path id="Path_501" data-name="Path 501" d="M235.821,163.579a2.216,2.216,0,0,1-.118.291q-1.215,2.216-2.437,4.428c-.2.356-.459.462-.74.314s-.345-.442-.156-.786q1.232-2.245,2.471-4.486a.5.5,0,0,1,.6-.31.5.5,0,0,1,.377.549" transform="translate(-211.321 -148.313)" fill="#cd001c"/>
      <path id="Path_502" data-name="Path 502" d="M199.176,143.269c.513,0,.744.374.573.745-.118.254-.265.495-.4.741l-2.014,3.661c-.038.069-.074.139-.116.205a.507.507,0,1,1-.886-.484c.175-.339.365-.671.549-1.005.639-1.161,1.271-2.326,1.923-3.48a1.8,1.8,0,0,1,.371-.383" transform="translate(-178.556 -130.351)" fill="#cd001c"/>
      <path id="Path_503" data-name="Path 503" d="M217.273,152.392c.317.055.56.255.563.51a.879.879,0,0,1-.105.414q-1.21,2.219-2.436,4.429c-.2.355-.462.463-.739.317s-.345-.449-.144-.815c.805-1.467,1.608-2.936,2.426-4.4a2.55,2.55,0,0,1,.434-.459" transform="translate(-194.971 -138.652)" fill="#cd001c"/>
      <path id="Path_504" data-name="Path 504" d="M84.4,84.639c.84.156,1.736.321,2.631.49q2.3.434,4.608.872c.452.086.635.421.435.776a.509.509,0,0,1-.614.226l-4.741-.895c-.807-.152-1.614-.3-2.42-.454-.361-.069-.516-.256-.483-.572.03-.294.221-.454.585-.442" transform="translate(-76.257 -77.007)" fill="#cd001c"/>
    </g>
  </g>
</svg>
