<svg id="Group_302" data-name="Group 302" xmlns="http://www.w3.org/2000/svg" xmlns:xlink="http://www.w3.org/1999/xlink" width="30" height="30" viewBox="0 0 30 30">
  <defs>
    <clipPath id="clip-path">
      <rect id="Rectangle_174" data-name="Rectangle 174" width="30" height="30" fill="#cd001c"/>
    </clipPath>
  </defs>
  <g id="Group_301" data-name="Group 301" clip-path="url(#clip-path)">
    <path id="Path_527" data-name="Path 527" d="M15.744,0l.8.1a.589.589,0,0,1,.585.645.6.6,0,0,1-.72.5A13.268,13.268,0,0,0,7.251,3.465a13.01,13.01,0,0,0-5.963,9.674A13.191,13.191,0,0,0,7.727,26.467a13.527,13.527,0,0,0,15.99-1.3,13.414,13.414,0,0,0,4.614-8.4A13.4,13.4,0,0,0,25.945,6.9c-.028-.04-.056-.079-.087-.116a.529.529,0,0,0-.095-.056c0,.2.006.378,0,.554a.576.576,0,0,1-.557.586.569.569,0,0,1-.588-.557q-.025-1.113,0-2.228a.56.56,0,0,1,.606-.566q1.07-.01,2.141,0a.562.562,0,0,1,.6.57.568.568,0,0,1-.589.582c-.277.01-.554,0-.876,0,.07.1.112.175.16.24A14.657,14.657,0,0,1,29.588,13.7a2.217,2.217,0,0,0,.048.25v1.794c-.016.075-.037.148-.049.224-.1.686-.164,1.379-.3,2.056A14.821,14.821,0,0,1,17.4,29.408c-.55.089-1.1.153-1.655.228H13.892c-.065-.016-.128-.037-.194-.046-.676-.1-1.359-.164-2.028-.3A14.82,14.82,0,0,1,.232,17.429C.141,16.87.077,16.306,0,15.744V13.892c.017-.084.037-.167.05-.251.1-.667.161-1.34.3-2A14.812,14.812,0,0,1,12.236.228c.55-.09,1.1-.153,1.656-.228Z" fill="#cd001c"/>
    <path id="Path_528" data-name="Path 528" d="M59.763,49.977a10.5,10.5,0,0,0-5.02,1.44c-.083.049-.164.1-.249.146a.58.58,0,0,1-.807-.189.553.553,0,0,1,.221-.8,17.367,17.367,0,0,1,2.076-1,11.037,11.037,0,1,1-7.077,12.412,10.763,10.763,0,0,1,1.458-7.857.583.583,0,1,1,.982.606,9.927,9.927,0,0,0,4.381,14.22A9.884,9.884,0,1,0,61.9,50.282c-.7-.148-1.427-.205-2.141-.3" transform="translate(-44.939 -45.126)" fill="#cd001c"/>
    <path id="Path_529" data-name="Path 529" d="M145.519,123.7a1.976,1.976,0,0,1-1.864-2.681.352.352,0,0,0-.1-.447c-.587-.572-1.164-1.155-1.741-1.737a.557.557,0,0,1-.125-.688.512.512,0,0,1,.6-.3.926.926,0,0,1,.411.243q.851.827,1.679,1.676a.325.325,0,0,0,.421.1,1.821,1.821,0,0,1,1.437,0,.309.309,0,0,0,.4-.089q1.794-1.807,3.6-3.6a2.554,2.554,0,0,1,.21-.2.572.572,0,0,1,.815.8,2.53,2.53,0,0,1-.217.232q-1.79,1.79-3.584,3.577a.334.334,0,0,0-.093.422,1.977,1.977,0,0,1-1.844,2.7m.822-1.985a.829.829,0,1,0-.824.828.817.817,0,0,0,.824-.828" transform="translate(-130.693 -106.897)" fill="#cd001c"/>
    <path id="Path_530" data-name="Path 530" d="M282.909,185.671c-.115,0-.231,0-.346,0a.572.572,0,0,1-.071-1.14,4.707,4.707,0,0,1,.863,0,.552.552,0,0,1,.5.6.56.56,0,0,1-.567.536c-.125.006-.25,0-.374,0" transform="translate(-260.229 -170.271)" fill="#cd001c"/>
    <path id="Path_531" data-name="Path 531" d="M185.541,282.928a3.4,3.4,0,0,1,0,.4.568.568,0,0,1-.613.521.557.557,0,0,1-.533-.57c-.009-.24-.009-.48,0-.72a.562.562,0,0,1,.538-.567.576.576,0,0,1,.608.53,3.6,3.6,0,0,1,0,.4h0" transform="translate(-170.156 -260.231)" fill="#cd001c"/>
    <path id="Path_532" data-name="Path 532" d="M185.662,78.864c0,.125.007.25,0,.374a.571.571,0,0,1-1.137.049,4.547,4.547,0,0,1,0-.862.552.552,0,0,1,.6-.5.559.559,0,0,1,.54.563c.007.124,0,.25,0,.374h0" transform="translate(-170.263 -71.911)" fill="#cd001c"/>
    <path id="Path_533" data-name="Path 533" d="M78.851,184.434c.125,0,.25-.006.374,0a.565.565,0,0,1,.549.526.547.547,0,0,1-.462.6,4.283,4.283,0,0,1-.918,0,.548.548,0,0,1-.475-.619.56.56,0,0,1,.557-.515c.124-.006.25,0,.374,0" transform="translate(-71.903 -170.198)" fill="#cd001c"/>
    <path id="Path_534" data-name="Path 534" d="M237.563,8.068a.576.576,0,0,1-.587.555.6.6,0,0,1-.563-.587.584.584,0,0,1,.61-.564.565.565,0,0,1,.54.6" transform="translate(-218.167 -6.895)" fill="#cd001c"/>
    <path id="Path_535" data-name="Path 535" d="M89.731,89.168a.573.573,0,0,1-.58.561.582.582,0,0,1-.572-.573.591.591,0,0,1,.6-.579.582.582,0,0,1,.554.591" transform="translate(-81.743 -81.741)" fill="#cd001c"/>
  </g>
</svg>
