<svg xmlns="http://www.w3.org/2000/svg" xmlns:xlink="http://www.w3.org/1999/xlink" width="66" height="66" viewBox="0 0 66 66">
  <defs>
    <clipPath id="clip-path">
      <rect id="Rectangle_158" data-name="Rectangle 158" width="66" height="66" transform="translate(0.375)" fill="#fff"/>
    </clipPath>
  </defs>
  <g id="Group_311" data-name="Group 311" transform="translate(-0.375 -0.19)">
    <g id="Group_291" data-name="Group 291" transform="translate(0 0.19)" clip-path="url(#clip-path)">
      <path id="Path_495" data-name="Path 495" d="M65.983,13.145v1.031c-.126.245-.246.494-.379.735Q52.715,38.328,39.822,61.742a2.14,2.14,0,0,1-3.2.931c-1.489-.808-2.972-1.627-4.457-2.442-1.526-.837-1.775-1.425-1.409-3.132a3.973,3.973,0,0,0-.85-3.54c-.062.218-.106.336-.129.458-.6,3.182-1.236,6.357-1.772,9.549a2.839,2.839,0,0,1-1.718,2.417H25.259a.948.948,0,0,0-.224-.108q-2.5-.471-5-.932a2.193,2.193,0,0,1-2.166-2.334A4.142,4.142,0,0,0,9.935,61.16,2.121,2.121,0,0,1,7.3,62.528c-1.645-.3-3.282-.66-4.935-.906A2.7,2.7,0,0,1,0,59.926V58.895a.973.973,0,0,0,.108-.225q2.01-10.72,4.015-21.442c.347-1.855.688-3.712,1.042-5.566A.921.921,0,0,1,6.292,30.8a.926.926,0,0,1,.78,1.185c-.045.318-.12.632-.18.948q-2.352,12.555-4.7,25.111c-.311,1.667-.29,1.672,1.423,1.839a.589.589,0,0,0,.163-.049c.063-.289.139-.6.2-.911q3.247-17.363,6.492-34.727c.2-1.062.544-1.311,1.607-1.112q8.854,1.659,17.7,3.336c.867.164,1.151.6.99,1.477-.108.591-.232,1.179-.343,1.769q-2.822,15.053-5.641,30.107c-.244,1.3-.478,2.605-.726,3.96.5.1.935.2,1.372.285.37.073.538-.08.606-.461.28-1.584.589-3.163.885-4.744q2.82-15.054,5.639-30.107c.223-1.192.437-2.385.663-3.622L9.212,20.563c-.167.886-.308,1.643-.451,2.4-.247,1.307-.483,2.616-.75,3.918a.912.912,0,0,1-1.116.792.929.929,0,0,1-.762-1.144q.04-.287.094-.572,1.842-9.8,3.684-19.605a2.142,2.142,0,0,1,2.8-1.954q2.69.49,5.374,1.018A2.126,2.126,0,0,1,19.968,7.6a4.125,4.125,0,0,0,7.914,1.544A2.176,2.176,0,0,1,30.59,7.762c1.814.337,3.633.65,5.434,1.045.5.11.668-.039.879-.428,1.226-2.264,2.492-4.505,3.709-6.774A3.106,3.106,0,0,1,42.27,0H43.3q2.585,1.42,5.171,2.841c1.5.823,1.771,1.441,1.382,3.1a4.067,4.067,0,0,0,2.827,4.889A4.028,4.028,0,0,0,57,9.578a2.059,2.059,0,0,1,2.545-.634A19.031,19.031,0,0,1,61.3,9.9a.956.956,0,0,1-.924,1.673,13.591,13.591,0,0,1-1.3-.711c-.314-.2-.5-.139-.76.129a6.045,6.045,0,0,1-10.3-5.633A.558.558,0,0,0,47.67,4.6c-1.513-.808-3.01-1.645-4.515-2.469-.143-.078-.3-.132-.474-.208-.14.234-.266.431-.378.635-1.128,2.047-2.2,4.127-3.4,6.131a11.222,11.222,0,0,0-1.426,4.146.712.712,0,0,0,.448.885q6.862,3.74,13.707,7.511c2.1,1.153,4.2,2.3,6.366,3.487l6.07-11.026c-.676-.664-.744-1.248-.249-1.708.458-.426,1.081-.322,1.617.309a7.353,7.353,0,0,1,.547.849M5.687,60.258c.6.114,1.177.182,1.726.34.47.135.659,0,.867-.438a6,6,0,0,1,7.9-2.912,5.959,5.959,0,0,1,3.617,5.1c.025.227.187.576.355.624.631.18,1.292.258,2,.385l6.588-35.166-16.466-3.1L5.687,60.258M37.093,19.886a14.261,14.261,0,0,0-1.465,3.1C34.447,28.85,33.392,34.74,32.3,40.622a1.9,1.9,0,0,0,.049.518,1.847,1.847,0,0,0,.56-.17c.646-.461,1.242-1,1.917-1.41a1.342,1.342,0,0,1,1.1-.142,1.3,1.3,0,0,1,.508.985c.021.789-.134,1.581-.152,2.374a1.077,1.077,0,0,0,.316.735c.524.474,1.115.873,1.66,1.325a.977.977,0,0,1-.311,1.795c-.725.263-1.474.462-2.189.747a1.169,1.169,0,0,0-.585.57c-.334.788-.576,1.615-.9,2.406a.945.945,0,0,1-1.73.186c-.188-.259-.337-.548-.505-.822l-.951-1.554-.206.042c-.186.975-.378,1.949-.547,2.927-.015.087.106.223.2.3a6.042,6.042,0,0,1,2.045,6.428.529.529,0,0,0,.162.46c.579.352,1.185.662,1.82,1.007l17.267-31.36-14.73-8.083m-1.174-9.144c-1.871-.354-3.62-.662-5.359-1.026a.8.8,0,0,0-1.078.529,6.043,6.043,0,0,1-11.425-2.3c-.024-.468-.187-.631-.615-.7-1.268-.213-2.531-.457-3.8-.689l-1.751-.321L9.568,18.66l24.023,4.523,2.328-12.44m.7,6.79c.363.157.686.266.981.427q7.733,4.233,15.46,8.479c1.222.671,1.3.95.619,2.179Q45.169,44.065,36.663,59.512c-.131.237-.254.479-.4.759l1.664.909L57.065,26.417l-20.045-11-.405,2.112M31.853,42.976,31.235,46.3c1.2-.241,1.363.816,2.007,1.542A2.58,2.58,0,0,1,35.723,45.3a2.276,2.276,0,0,1-1.289-3.051c-.908.667-1.533,1.45-2.582.724" transform="translate(0 -0.235)" fill="#fff"/>
      <path id="Path_496" data-name="Path 496" d="M245.687,62.273a6.419,6.419,0,0,1,.769.279q6.12,3.348,12.233,6.71c.687.378.855,1.046.412,1.54a1.012,1.012,0,0,1-1.394.125q-4.278-2.361-8.567-4.7-1.832-1.005-3.663-2.012a.883.883,0,0,1-.52-1.166c.138-.318.5-.54.73-.772" transform="translate(-202.802 -51.807)" fill="#fff"/>
      <path id="Path_497" data-name="Path 497" d="M65.937,258.737c1.045.4,1.7-.145,2.195-1.074a5.009,5.009,0,0,1,.89-1.253,1.348,1.348,0,0,1,.99-.377,1.178,1.178,0,0,1,.714.706,14.1,14.1,0,0,1,.536,2.18,1.03,1.03,0,0,0,.825.908c.575.164,1.137.38,1.7.6.989.381,1.122,1.209.294,1.855-.608.474-1.252.9-1.849,1.392a1,1,0,0,0-.336.62c-.066.811-.02,1.634-.126,2.439a1.7,1.7,0,0,1-.557,1.049c-.4.3-.849.063-1.212-.264-.478-.43-.994-.821-1.449-1.273a.78.78,0,0,0-.969-.167,10.8,10.8,0,0,1-1.818.625,1.5,1.5,0,0,1-1.162-.159,1.4,1.4,0,0,1-.19-1.153c.233-.908.9-1.817.813-2.664s-.9-1.608-1.378-2.42a.972.972,0,0,1,.87-1.564c.385-.014.771,0,1.225,0m.788,5.532c1.682-.425,1.682-.425,3.237.535a2.594,2.594,0,0,1,1.635-3.1,2.344,2.344,0,0,1-2.25-2.387,2.366,2.366,0,0,1-2.907,1.456,2.555,2.555,0,0,1,.286,3.5" transform="translate(-52.713 -212.267)" fill="#fff"/>
      <path id="Path_498" data-name="Path 498" d="M82.509,168.584c-.255,1.379-.528,2.875-.808,4.37q-.5,2.653-1,5.305c-.143.752-.605,1.145-1.206,1.032-.569-.107-.838-.625-.7-1.37q.886-4.738,1.778-9.476c.13-.688.5-1.026,1.058-.973a.971.971,0,0,1,.882,1.111" transform="translate(-65.223 -138.926)" fill="#fff"/>
      <path id="Path_499" data-name="Path 499" d="M98.949,181.989c.3-1.619.613-3.325.932-5.031q.437-2.337.883-4.673c.138-.726.519-1.051,1.115-.96.638.1.93.546.793,1.29q-.889,4.8-1.8,9.6a1.01,1.01,0,0,1-1.122.915c-.512-.058-.827-.47-.8-1.143" transform="translate(-81.945 -142.109)" fill="#fff"/>
      <path id="Path_500" data-name="Path 500" d="M122.879,176.065c-.354,1.9-.714,3.839-1.076,5.778q-.365,1.96-.734,3.919c-.145.768-.525,1.09-1.158.983-.615-.1-.893-.558-.751-1.323q.888-4.806,1.8-9.607a.968.968,0,1,1,1.917.251" transform="translate(-98.654 -145.095)" fill="#fff"/>
      <path id="Path_501" data-name="Path 501" d="M239.044,164.094a4.225,4.225,0,0,1-.224.555q-2.316,4.223-4.645,8.438c-.375.679-.874.88-1.41.6s-.658-.842-.3-1.5q2.348-4.279,4.708-8.55a.96.96,0,0,1,1.149-.59.944.944,0,0,1,.719,1.047" transform="translate(-192.353 -135.235)" fill="#fff"/>
      <path id="Path_502" data-name="Path 502" d="M201.826,143.269c.978-.005,1.418.714,1.091,1.42-.224.485-.5.943-.763,1.412q-1.919,3.489-3.839,6.977c-.072.131-.141.265-.221.392a.967.967,0,1,1-1.688-.923c.334-.646.7-1.278,1.047-1.916,1.217-2.213,2.423-4.433,3.666-6.632a3.423,3.423,0,0,1,.707-.73" transform="translate(-162.529 -118.886)" fill="#fff"/>
      <path id="Path_503" data-name="Path 503" d="M219.972,152.392c.6.1,1.067.486,1.073.971a1.674,1.674,0,0,1-.2.789q-2.307,4.229-4.643,8.441c-.374.676-.88.883-1.408.6-.55-.29-.657-.855-.274-1.554,1.535-2.8,3.065-5.6,4.624-8.378a4.86,4.86,0,0,1,.828-.874" transform="translate(-177.471 -126.441)" fill="#fff"/>
      <path id="Path_504" data-name="Path 504" d="M84.937,84.639c1.6.3,3.308.612,5.014.933q4.391.827,8.781,1.661c.862.164,1.21.8.83,1.479a.97.97,0,0,1-1.17.43l-9.035-1.705c-1.537-.29-3.076-.573-4.613-.866-.689-.131-.983-.488-.921-1.089.057-.56.42-.865,1.115-.843" transform="translate(-69.412 -70.329)" fill="#fff"/>
    </g>
  </g>
</svg>
