<svg id="Group_381" data-name="Group 381" xmlns="http://www.w3.org/2000/svg" xmlns:xlink="http://www.w3.org/1999/xlink" width="94.405" height="94.508" viewBox="0 0 94.405 94.508">
  <defs>
    <clipPath id="clip-path">
      <rect id="Rectangle_218" data-name="Rectangle 218" width="94.405" height="94.508" fill="#cd001c"/>
    </clipPath>
  </defs>
  <g id="Group_380" data-name="Group 380" clip-path="url(#clip-path)">
    <path id="Path_598" data-name="Path 598" d="M53.541,14.217c10.085.723,18.33,4.9,24.546,12.819a31.819,31.819,0,0,1,6.92,20.169,32.144,32.144,0,0,1-9.1,22.8A32.638,32.638,0,0,1,53.54,80.276c0,3.184.015,6.3,0,9.407a4.711,4.711,0,0,1-3.9,4.744,6.9,6.9,0,0,1-1.273.079q-21.6.006-43.194,0C1.961,94.506,0,92.559,0,89.373Q0,47.251,0,5.129C0,1.94,1.958,0,5.17,0q21.6,0,43.194,0c3.257,0,5.171,1.936,5.176,5.221,0,2.979,0,5.959,0,8.994M8.206,3.151h-2.7c-1.941,0-2.359.419-2.359,2.364q0,41.735,0,83.469c0,1.95.419,2.373,2.353,2.373H48.014c.262,0,.526.013.787-.006A1.528,1.528,0,0,0,50.375,89.8c.03-3.146.012-6.292.012-9.524A32.653,32.653,0,0,1,27.963,69.944a32.124,32.124,0,0,1-9.037-22.929,31.84,31.84,0,0,1,7.038-20.13c6.213-7.833,14.423-11.94,24.417-12.661,0-3.238.029-6.415-.018-9.591a1.442,1.442,0,0,0-1.544-1.467c-1.144-.04-2.289-.01-3.486-.01-.226.894-.435,1.746-.658,2.594a4.7,4.7,0,0,1-4.719,3.7q-13.186.018-26.373,0a4.7,4.7,0,0,1-4.719-3.7c-.223-.848-.431-1.7-.659-2.6m23.288,65.7V67.724c0-5.741-.013-11.482.007-17.222a4.7,4.7,0,0,1,4.78-4.819c.787-.013,1.577.036,2.361-.013a3.047,3.047,0,0,1,2.237.781,17.253,17.253,0,0,0,21.01.794,8.087,8.087,0,0,1,5.336-1.59c3.274.1,5.208,1.949,5.211,5.211q.007,8.464,0,16.927v1.147A29.9,29.9,0,1,0,23.13,39.2c-3.32,11.842,1.42,23.66,8.365,29.644" transform="translate(0 0)" fill="#cd001c"/>
    <path id="Path_599" data-name="Path 599" d="M298.643,64.239l-4.3,4.307-1.862-1.967,4.29-4.287,1.876,1.947" transform="translate(-215.733 -45.947)" fill="#cd001c"/>
    <path id="Path_600" data-name="Path 600" d="M298.275,278.8l-1.89,1.927-4.369-4.375,1.954-1.858,4.3,4.306" transform="translate(-215.394 -202.471)" fill="#cd001c"/>
    <path id="Path_601" data-name="Path 601" d="M320.062,249.819l-5.447-3.146,1.573-2.726,5.444,3.15-1.57,2.722" transform="translate(-232.062 -179.937)" fill="#cd001c"/>
    <path id="Path_602" data-name="Path 602" d="M231.081,28.887l-3.043-.809,1.633-6.069,3.024.805-1.614,6.073" transform="translate(-168.203 -16.234)" fill="#cd001c"/>
    <path id="Path_603" data-name="Path 603" d="M265.059,36.747l2.719,1.576-3.135,5.439-2.729-1.56,3.146-5.455" transform="translate(-193.189 -27.105)" fill="#cd001c"/>
    <path id="Path_604" data-name="Path 604" d="M320.069,93.86l1.569,2.721-5.446,3.152-1.567-2.728,5.444-3.146" transform="translate(-232.07 -69.232)" fill="#cd001c"/>
    <path id="Path_605" data-name="Path 605" d="M330.725,137.025l-.806-3.031,6.06-1.632.825,3.034-6.079,1.629" transform="translate(-243.351 -97.632)" fill="#cd001c"/>
    <rect id="Rectangle_214" data-name="Rectangle 214" width="6.176" height="3.03" transform="translate(88.23 45.731)" fill="#cd001c"/>
    <path id="Path_606" data-name="Path 606" d="M330.735,209.97l6.061,1.648-.8,3.017-6.076-1.606.812-3.058" transform="translate(-243.354 -154.875)" fill="#cd001c"/>
    <path id="Path_607" data-name="Path 607" d="M267.766,302.1l-2.72,1.574-3.151-5.436,2.716-1.59,3.155,5.452" transform="translate(-193.176 -218.81)" fill="#cd001c"/>
    <path id="Path_608" data-name="Path 608" d="M231.072,311.946l1.626,6.068-3.026.815-1.642-6.068,3.043-.815" transform="translate(-168.196 -230.094)" fill="#cd001c"/>
    <rect id="Rectangle_215" data-name="Rectangle 215" width="28.22" height="3.035" transform="translate(12.676 85.123)" fill="#cd001c"/>
    <rect id="Rectangle_216" data-name="Rectangle 216" width="2.993" height="3.063" transform="translate(6.381 85.078)" fill="#cd001c"/>
    <rect id="Rectangle_217" data-name="Rectangle 217" width="3.015" height="3.063" transform="translate(44.151 85.107)" fill="#cd001c"/>
    <path id="Path_609" data-name="Path 609" d="M144.046,92.229a14.171,14.171,0,1,1,14.228,14.16,14.188,14.188,0,0,1-14.228-14.16m14.233,11.015a11.024,11.024,0,1,0-11.085-10.837,11.059,11.059,0,0,0,11.085,10.837" transform="translate(-106.249 -57.567)" fill="#cd001c"/>
  </g>
</svg>
